# Blender v2.92.0 OBJ File: ''
# www.blender.org
mtllib Hab4.mtl
o Cubo
v -5.000000 0.000000 5.000000
v -5.000000 4.000000 5.000000
v -5.000000 0.000000 -5.000000
v -5.000000 4.000000 -5.000000
v 5.000000 0.000000 5.000000
v 5.000000 4.000000 5.000000
v 5.000000 0.000000 -5.000000
v 5.000000 4.000000 -5.000000
v -5.000000 2.000000 5.000000
v -5.000000 2.000000 -5.000000
v 5.000000 2.000000 -5.000000
v 5.000000 2.000000 5.000000
v 1.000000 0.000000 -5.000000
v -1.000000 0.000000 -5.000000
v -1.000000 4.000000 -5.000000
v 1.000000 4.000000 -5.000000
v -1.000000 0.000000 5.000000
v 1.000000 0.000000 5.000000
v 1.000000 4.000000 5.000000
v -1.000000 4.000000 5.000000
v 1.000000 2.000000 5.000000
v -1.000000 2.000000 5.000000
v -1.000000 2.000000 -5.000000
v 1.000000 2.000000 -5.000000
v -1.000000 0.000000 6.000000
v 1.000000 0.000000 6.000000
v 1.000000 2.000000 6.000000
v -1.000000 2.000000 6.000000
v -5.000000 0.000000 -1.000000
v -5.000000 0.000000 1.000000
v -5.000000 4.000000 1.000000
v -5.000000 4.000000 -1.000000
v 5.000000 0.000000 1.000000
v 5.000000 0.000000 -1.000000
v 5.000000 4.000000 -1.000000
v 5.000000 4.000000 1.000000
v 5.000000 2.000000 -1.000000
v 5.000000 2.000000 1.000000
v -5.000000 2.000000 1.000000
v -5.000000 2.000000 -1.000000
v 1.000000 4.000000 -1.666667
v 1.000000 4.000000 1.666667
v -1.000000 4.000000 -1.666667
v -1.000000 4.000000 1.666667
v -1.000000 0.000000 -1.666667
v -1.000000 0.000000 1.666667
v 1.000000 0.000000 -1.666667
v 1.000000 0.000000 1.666667
v 6.000000 0.000000 1.000000
v 6.000000 0.000000 -1.000000
v 6.000000 2.000000 -1.000000
v 6.000000 2.000000 1.000000
v 1.000000 0.000000 -6.000000
v -1.000000 0.000000 -6.000000
v -1.000000 2.000000 -6.000000
v 1.000000 2.000000 -6.000000
vt 0.296935 0.669061
vt 0.296935 0.750000
vt 0.375000 0.750000
vt 0.375000 0.669061
vt 0.213602 0.750000
vt 0.213602 0.750000
vt 0.296935 0.750000
vt 0.125000 0.669061
vt 0.125000 0.750000
vt 0.213602 0.669061
vt 0.213602 0.500000
vt 0.213602 0.585728
vt 0.296935 0.585728
vt 0.296935 0.500000
vt 0.125000 0.500000
vt 0.125000 0.585728
vt 0.375000 0.585728
vt 0.375000 0.500000
vt 0.375000 0.669061
vt 0.375000 0.585728
vt 0.296935 0.500000
vt 0.213602 0.500000
vt 0.502404 0.164272
vt 0.502404 0.250000
vt 0.625000 0.250000
vt 0.625000 0.164272
vt 0.502404 0.421935
vt 0.502404 0.500000
vt 0.625000 0.500000
vt 0.625000 0.421935
vt 0.502404 0.669061
vt 0.502404 0.750000
vt 0.625000 0.750000
vt 0.625000 0.669061
vt 0.502404 0.911398
vt 0.502404 1.000000
vt 0.625000 1.000000
vt 0.625000 0.911398
vt 0.375000 0.911398
vt 0.375000 1.000000
vt 0.375000 0.421935
vt 0.375000 0.164272
vt 0.375000 0.250000
vt 0.375000 0.338602
vt 0.502404 0.338602
vt 0.502404 0.421935
vt 0.375000 0.421935
vt 0.375000 0.828065
vt 0.502404 0.828065
vt 0.625000 0.828065
vt 0.625000 0.338601
vt 0.375000 0.828065
vt 0.502404 0.828065
vt 0.502404 0.911398
vt 0.375000 0.911398
vt 0.375000 0.000000
vt 0.375000 0.080939
vt 0.502404 0.080939
vt 0.502404 0.000000
vt 0.502404 0.585728
vt 0.502404 0.585728
vt 0.625000 0.585728
vt 0.625000 0.080939
vt 0.625000 0.000000
vt 0.502404 0.669061
vt 0.375000 0.338602
vt 0.502404 0.338602
vt 0.786398 0.669061
vt 0.786398 0.750000
vt 0.875000 0.750000
vt 0.875000 0.669061
vt 0.703065 0.750000
vt 0.703065 0.669061
vt 0.703065 0.500000
vt 0.703065 0.585728
vt 0.786398 0.585728
vt 0.786398 0.500000
vt 0.875000 0.585728
vt 0.875000 0.500000
vn 0.0000 1.0000 0.0000
vn 1.0000 0.0000 0.0000
vn 0.0000 0.0000 1.0000
vn -1.0000 0.0000 0.0000
vn 0.0000 0.0000 -1.0000
vn 0.0000 -1.0000 0.0000
usemtl Suelo
s off
f 48/1/1 18/2/1 5/3/1 33/4/1
f 17/5/1 25/6/1 26/7/1 18/2/1
f 30/8/1 1/9/1 17/5/1 46/10/1
f 46/10/1 17/5/1 18/2/1 48/1/1
f 14/11/1 45/12/1 47/13/1 13/14/1
f 45/12/1 46/10/1 48/1/1 47/13/1
f 3/15/1 29/16/1 45/12/1 14/11/1
f 29/16/1 30/8/1 46/10/1 45/12/1
f 13/14/1 47/13/1 34/17/1 7/18/1
f 47/13/1 48/1/1 33/4/1 34/17/1
f 34/17/1 33/4/1 49/19/1 50/20/1
f 14/11/1 13/14/1 53/21/1 54/22/1
usemtl Pared
f 40/23/2 10/24/2 4/25/2 32/26/2
f 24/27/3 11/28/3 8/29/3 16/30/3
f 38/31/4 12/32/4 6/33/4 36/34/4
f 22/35/5 9/36/5 2/37/5 20/38/5
f 17/39/5 1/40/5 9/36/5 22/35/5
f 33/4/4 5/3/4 12/32/4 38/31/4
f 13/41/3 7/18/3 11/28/3 24/27/3
f 29/42/2 3/43/2 10/24/2 40/23/2
f 3/43/3 14/44/3 23/45/3 10/24/3
f 13/41/4 24/27/4 56/46/4 53/47/4
f 5/3/5 18/48/5 21/49/5 12/32/5
f 12/32/5 21/49/5 19/50/5 6/33/5
f 21/49/5 22/35/5 20/38/5 19/50/5
f 10/24/3 23/45/3 15/51/3 4/25/3
f 23/45/3 24/27/3 16/30/3 15/51/3
f 18/48/4 26/52/4 27/53/4 21/49/4
f 22/35/2 28/54/2 25/55/2 17/39/2
f 1/56/2 30/57/2 39/58/2 9/59/2
f 30/57/2 29/42/2 40/23/2 39/58/2
f 7/18/4 34/17/4 37/60/4 11/28/4
f 37/60/3 34/17/3 50/20/3 51/61/3
f 11/28/4 37/60/4 35/62/4 8/29/4
f 37/60/4 38/31/4 36/34/4 35/62/4
f 9/59/2 39/58/2 31/63/2 2/64/2
f 39/58/2 40/23/2 32/26/2 31/63/2
f 33/4/5 38/31/5 52/65/5 49/19/5
f 23/45/2 14/44/2 54/66/2 55/67/2
usemtl Techo
f 44/68/6 20/69/6 2/70/6 31/71/6
f 36/34/6 6/33/6 19/72/6 42/73/6
f 42/73/6 19/72/6 20/69/6 44/68/6
f 21/49/6 27/53/6 28/54/6 22/35/6
f 16/74/6 41/75/6 43/76/6 15/77/6
f 41/75/6 42/73/6 44/68/6 43/76/6
f 8/29/6 35/62/6 41/75/6 16/74/6
f 35/62/6 36/34/6 42/73/6 41/75/6
f 15/77/6 43/76/6 32/78/6 4/79/6
f 43/76/6 44/68/6 31/71/6 32/78/6
f 38/31/6 37/60/6 51/61/6 52/65/6
f 24/27/6 23/45/6 55/67/6 56/46/6
