# Blender v2.92.0 OBJ File: ''
# www.blender.org
mtllib Pas4.mtl
o Cubo
v -1.000000 -1.000000 1.000000
v -1.000000 1.000000 1.000000
v -1.000000 -1.000000 -1.000000
v -1.000000 1.000000 -1.000000
v 6.000000 -1.000000 1.000000
v 6.000000 1.000000 1.000000
v 6.000000 -1.000000 -1.000000
v 6.000000 1.000000 -1.000000
v 1.000000 -1.000000 -1.000000
v 1.000000 1.000000 -1.000000
v 1.000000 -1.000000 1.000000
v 1.000000 1.000000 1.000000
v -1.000000 -1.000000 -6.000000
v -1.000000 1.000000 -6.000000
v 1.000000 -1.000000 -6.000000
v 1.000000 1.000000 -6.000000
v -6.000000 -1.000000 1.000000
v -6.000000 1.000000 1.000000
v -6.000000 -1.000000 -1.000000
v -6.000000 1.000000 -1.000000
v -1.000000 -1.000000 6.000000
v -1.000000 1.000000 6.000000
v 1.000000 -1.000000 6.000000
v 1.000000 1.000000 6.000000
vt 0.196429 0.500000
vt 0.196429 0.750000
vt 0.375000 0.750000
vt 0.375000 0.500000
vt 0.125000 0.500000
vt 0.125000 0.750000
vt 0.196429 0.500000
vt 0.125000 0.500000
vt 0.125000 0.500000
vt 0.125000 0.750000
vt 0.125000 0.750000
vt 0.196429 0.750000
vt 0.375000 0.321429
vt 0.625000 0.500000
vt 0.625000 0.321429
vt 0.375000 0.928571
vt 0.625000 0.928571
vt 0.625000 0.750000
vt 0.625000 0.321429
vt 0.375000 0.321429
vt 0.625000 0.250000
vt 0.375000 0.250000
vt 0.375000 0.250000
vt 0.625000 0.250000
vt 0.625000 0.250000
vt 0.375000 0.250000
vt 0.625000 1.000000
vt 0.375000 1.000000
vt 0.375000 1.000000
vt 0.625000 1.000000
vt 0.375000 0.928571
vt 0.625000 0.928571
vt 0.625000 1.000000
vt 0.375000 1.000000
vt 0.803571 0.500000
vt 0.803571 0.750000
vt 0.875000 0.750000
vt 0.875000 0.500000
vt 0.875000 0.500000
vt 0.803571 0.500000
vt 0.875000 0.750000
vt 0.875000 0.500000
vt 0.803571 0.750000
vt 0.875000 0.750000
vn 0.0000 1.0000 0.0000
vn 0.0000 0.0000 1.0000
vn 0.0000 0.0000 -1.0000
vn -1.0000 0.0000 0.0000
vn 1.0000 0.0000 0.0000
vn 0.0000 -1.0000 0.0000
usemtl Suelo
s off
f 9/1/1 11/2/1 5/3/1 7/4/1
f 3/5/1 1/6/1 11/2/1 9/1/1
f 3/5/1 9/1/1 15/7/1 13/8/1
f 1/6/1 3/5/1 19/9/1 17/10/1
f 11/2/1 1/6/1 21/11/1 23/12/1
usemtl Pared
f 9/13/2 7/4/2 8/14/2 10/15/2
f 5/3/3 11/16/3 12/17/3 6/18/3
f 9/13/4 10/15/4 16/19/4 15/20/4
f 4/21/5 3/22/5 13/23/5 14/24/5
f 3/22/2 4/21/2 20/25/2 19/26/2
f 2/27/3 1/28/3 17/29/3 18/30/3
f 12/17/4 11/16/4 23/31/4 24/32/4
f 1/28/5 2/27/5 22/33/5 21/34/5
usemtl Techo
f 10/35/6 12/36/6 2/37/6 4/38/6
f 8/14/6 6/18/6 12/36/6 10/35/6
f 10/35/6 4/38/6 14/39/6 16/40/6
f 4/38/6 2/37/6 18/41/6 20/42/6
f 2/37/6 12/36/6 24/43/6 22/44/6
