# Blender v2.92.0 OBJ File: ''
# www.blender.org
mtllib Pas5.mtl
o Plano
v -5.923077 0.000000 1.000000
v 6.076923 0.000000 1.000000
v -5.923077 0.000000 -1.000000
v 6.076923 0.000000 -1.000000
v -5.923077 2.000000 1.000000
v 6.076923 2.000000 1.000000
v -5.923077 2.000000 -1.000000
v 6.076923 2.000000 -1.000000
vt 0.000000 0.000000
vt 1.000000 0.000000
vt 1.000000 1.000000
vt 0.000000 1.000000
vt 1.000000 1.000000
vt 0.000000 1.000000
vt 0.000000 0.000000
vt 1.000000 0.000000
vn 0.0000 1.0000 0.0000
vn 0.0000 0.0000 1.0000
vn 0.0000 0.0000 -1.0000
vn 0.0000 -1.0000 0.0000
usemtl Suelo
s off
f 1/1/1 2/2/1 4/3/1 3/4/1
usemtl Pared
f 4/3/2 8/5/2 7/6/2 3/4/2
f 1/1/3 5/7/3 6/8/3 2/2/3
usemtl Techo
f 5/7/4 7/6/4 8/5/4 6/8/4
