# Blender v2.93.1 OBJ File: 'MueblesOficina.blend'
# www.blender.org
mtllib Computador.mtl
o Cubo.002
v 20.646769 0.910361 24.804728
v 20.646769 1.374175 24.804728
v 20.602942 0.892390 24.788263
v 20.602942 1.392146 24.788263
v 21.334126 0.910361 24.564535
v 21.334126 1.374175 24.564535
v 21.358160 0.892390 24.524359
v 21.358160 1.392146 24.524359
v 20.612837 0.892390 24.816584
v 20.612837 1.392146 24.816584
v 21.368055 1.392146 24.552679
v 21.368055 0.892390 24.552679
v 20.640583 0.910361 24.787029
v 20.640583 1.374175 24.787029
v 21.327942 1.374175 24.546839
v 21.327942 0.910361 24.546839
v 20.814054 0.877058 24.723259
v 20.818491 0.877058 24.735952
v 21.152506 0.877058 24.604992
v 21.156940 0.877058 24.617683
v 20.814054 0.815975 24.723259
v 20.818491 0.815975 24.735952
v 21.152506 0.815975 24.604992
v 21.156940 0.815975 24.617683
v 20.620987 0.804663 24.710426
v 20.659971 0.804663 24.821991
v 21.295565 0.804663 24.474701
v 21.334549 0.804663 24.586264
v 20.816568 1.245711 24.689011
v 20.816568 1.038826 24.689011
v 21.129208 1.038826 24.579762
v 21.129208 1.245711 24.579762
vt 0.375000 0.000000
vt 0.625000 0.000000
vt 0.625000 0.250000
vt 0.375000 0.250000
vt 0.875000 0.500000
vt 0.625000 0.500000
vt 0.625000 0.500000
vt 0.875000 0.500000
vt 0.375000 0.500000
vt 0.625000 0.750000
vt 0.375000 0.750000
vt 0.383990 0.988768
vt 0.383990 0.761232
vt 0.383990 0.761232
vt 0.383990 0.988768
vt 0.375000 0.250000
vt 0.375000 0.000000
vt 0.875000 0.750000
vt 0.616010 0.988768
vt 0.625000 1.000000
vt 0.375000 1.000000
vt 0.616010 0.761232
vt 0.616010 0.988768
vt 0.616010 0.761232
vt 0.375000 0.750000
vt 0.375000 1.000000
vt 0.375000 1.000000
vt 0.375000 0.750000
vt 0.375000 0.500000
vt 0.375000 0.500000
vt 0.375000 0.750000
vt 0.375000 0.500000
vt 0.375000 0.250000
vt 0.375000 0.000000
vt 0.125000 0.500000
vt 0.125000 0.750000
vt 0.375000 0.250000
vt 0.375000 0.000000
vt 0.375000 1.000000
vt 0.375000 0.250000
vt 0.625000 0.250000
vt 0.375000 0.500000
vn -0.3694 -0.5555 0.7449
vn -0.3546 0.5773 0.7355
vn -0.7404 0.5866 -0.3280
vn -0.7572 -0.5653 -0.3272
vn 0.3750 0.5866 -0.7178
vn -0.2973 0.0646 -0.9526
vn -0.3607 0.0646 -0.9304
vn 0.3886 -0.5653 -0.7276
vn 0.7355 0.5773 0.3546
vn 0.7530 -0.5555 0.3527
vn 0.5830 0.3015 0.7544
vn 0.0137 0.3015 0.9533
vn 0.7355 0.5773 0.3545
vn -0.5434 -0.5550 -0.6299
vn -0.0328 -0.5549 0.8312
vn 0.5830 -0.3015 0.7544
vn 0.0137 -0.3015 0.9533
vn 0.7355 -0.5773 0.3546
vn -0.3546 -0.5773 0.7355
vn 0.5434 -0.5549 0.6299
vn -0.1298 0.8197 0.5579
vn 0.4490 0.8197 0.3556
vn 0.0328 -0.5550 -0.8312
vn 0.1775 0.8737 -0.4530
vn 0.9616 -0.0250 0.2733
vn 0.5261 -0.0219 -0.8501
vn -0.4210 0.8737 -0.2438
vn -0.9411 -0.0219 -0.3374
vn -0.5821 -0.0250 0.8127
vn -0.3607 -0.0646 -0.9304
vn -0.2973 -0.0646 -0.9526
usemtl Material.003
s 1
f 9/1/1 10/2/2 4/3/3 3/4/4
f 4/5/3 8/6/5 32/7/6 29/8/7
f 7/9/8 8/6/5 11/10/9 12/11/10
f 1/12/11 5/13/12 16/14/2 13/15/13
f 9/1/1 3/4/4 17/16/14 18/17/15
f 8/6/5 4/5/3 10/18/2 11/10/9
f 1/12/11 2/19/16 10/20/2 9/21/1
f 6/22/17 5/13/12 12/11/10 11/10/9
f 5/13/12 1/12/11 9/21/1 12/11/10
f 2/19/16 6/22/17 11/10/9 10/20/2
f 2/19/16 1/12/11 13/15/13 14/23/18
f 6/22/17 2/19/16 14/23/18 15/24/19
f 5/13/12 6/22/17 15/24/19 16/14/2
f 20/25/20 18/26/15 22/27/21 24/28/22
f 7/9/8 12/11/10 20/25/20 19/29/23
f 12/11/10 9/21/1 18/26/15 20/25/20
f 3/4/4 7/9/8 19/29/23 17/16/14
f 23/30/24 24/28/22 28/31/25 27/32/26
f 17/16/14 19/29/23 23/30/24 21/33/27
f 19/29/23 20/25/20 24/28/22 23/30/24
f 18/17/15 17/16/14 21/33/27 22/34/21
f 25/35/28 27/32/26 28/31/25 26/36/29
f 22/34/21 21/33/27 25/37/28 26/38/29
f 24/28/22 22/27/21 26/39/29 28/31/25
f 21/33/27 23/30/24 27/32/26 25/37/28
f 30/40/30 29/41/7 32/7/6 31/42/31
f 3/4/4 4/3/3 29/41/7 30/40/30
f 8/6/5 7/9/8 31/42/31 32/7/6
f 7/9/8 3/4/4 30/40/30 31/42/31
usemtl Material.002
f 16/14/2 15/24/19 14/23/18 13/15/13
