# Blender v2.93.0 OBJ File: 'tarjeta.blend'
# www.blender.org
mtllib tarjeta.mtl
o Cube
v 0.005000 0.315000 0.509589
v 0.004853 0.305754 0.525000
v 0.004853 -0.305754 0.525000
v 0.005000 -0.315000 0.509589
v -0.004853 0.305754 0.525000
v -0.005000 0.315000 0.509589
v -0.004853 -0.305754 0.525000
v -0.005000 -0.315000 0.509589
v 0.004868 0.306697 -0.525000
v 0.005000 0.315000 -0.511161
v 0.004868 -0.306697 -0.525000
v 0.005000 -0.315000 -0.511161
v -0.005000 0.315000 -0.511161
v -0.004868 0.306697 -0.525000
v -0.005000 -0.315000 -0.511161
v -0.004868 -0.306697 -0.525000
vt 0.375000 0.003669
vt 0.625000 0.003669
vt 0.625000 0.246705
vt 0.375000 0.246705
vt 0.125000 0.503295
vt 0.375000 0.503295
vt 0.375000 0.746331
vt 0.125000 0.746331
vt 0.378669 0.753669
vt 0.621331 0.753669
vt 0.621331 0.996331
vt 0.378669 0.996331
vt 0.625000 0.503295
vt 0.875000 0.503295
vt 0.875000 0.746331
vt 0.625000 0.746331
vt 0.625000 1.000000
vt 0.375000 1.000000
vt 0.625000 0.750000
vt 0.375000 0.750000
vt 0.378295 0.253295
vt 0.621705 0.253295
vt 0.621705 0.496705
vt 0.378295 0.496705
vt 0.375000 0.500000
vt 0.375000 0.250000
vt 0.625000 0.250000
vt 0.625000 0.500000
vn -1.0000 0.0000 0.0000
vn 0.0000 -1.0000 0.0000
vn 0.0000 0.0000 1.0000
vn 0.0000 1.0000 0.0000
vn -1.0000 0.0000 0.0095
vn 1.0000 0.0000 0.0095
vn 0.0000 0.8575 0.5145
vn 0.0000 -0.8575 0.5145
vn 0.0000 0.0000 -1.0000
vn 0.0000 -0.8575 -0.5145
vn 1.0000 0.0000 -0.0095
vn -1.0000 0.0000 -0.0095
vn 0.0000 0.8575 -0.5145
vn 1.0000 0.0000 0.0000
usemtl Material
s off
f 8/1/1 6/2/1 13/3/1 15/4/1
f 15/5/2 12/6/2 4/7/2 8/8/2
f 3/9/3 2/10/3 5/11/3 7/12/3
f 10/13/4 13/14/4 6/15/4 1/16/4
f 7/12/5 5/11/5 6/17/5 8/18/5
f 2/10/6 3/9/6 4/7/6 1/16/6
f 1/19/7 6/17/7 5/11/7 2/10/7
f 8/18/8 4/20/8 3/9/8 7/12/8
f 16/21/9 14/22/9 9/23/9 11/24/9
f 12/25/10 15/26/10 16/21/10 11/24/10
f 10/13/11 12/6/11 11/24/11 9/23/11
f 14/22/12 16/21/12 15/4/12 13/3/12
f 13/27/13 10/28/13 9/23/13 14/22/13
f 12/6/14 10/13/14 1/16/14 4/7/14
