# Blender v2.93.1 OBJ File: 'MueblesOficina.blend'
# www.blender.org
mtllib Escritorio2.mtl
o Cubo.001
v -1.000000 0.000000 0.556040
v -1.000000 0.800000 0.556040
v -1.000000 0.000000 -0.556040
v -1.000000 0.800000 -0.556040
v 1.000000 0.000000 0.556040
v 1.000000 0.800000 0.556040
v 1.000000 0.000000 -0.556040
v 1.000000 0.800000 -0.556040
v 0.950000 0.000000 -0.556040
v 0.950000 0.800000 -0.556040
v 0.950000 0.000000 0.556040
v 0.950000 0.800000 0.556040
v -0.950000 0.000000 -0.556040
v -0.950000 0.800000 0.556040
v -0.950000 0.800000 -0.556040
v -0.950000 0.000000 0.556040
v -0.950000 0.750000 0.556040
v 0.950000 0.750000 0.556040
v 0.950000 0.750000 -0.556040
v -0.950000 0.750000 -0.556040
v -0.421654 0.750000 0.462522
v -0.421654 0.750000 -0.511520
v 0.950000 0.501179 0.462522
v 0.950000 0.750000 0.512522
v -0.950000 0.750000 0.512522
v -0.421654 0.750000 0.462522
v 0.950000 0.501179 0.512522
v -0.950000 0.501179 0.512522
v 0.950000 0.750000 0.462522
v -0.950000 0.750000 0.462522
v 0.950000 0.750000 0.462522
v 0.950000 0.750000 0.512522
v -0.950000 0.750000 0.462522
v -0.950000 0.750000 0.512522
v 0.950000 0.408491 0.462522
v 0.950000 0.408491 0.512522
v -0.950000 0.408491 0.462522
v -0.950000 0.408491 0.512522
v -0.368683 0.750000 0.512522
v -0.950000 0.501179 0.462522
v -0.421654 0.501179 -0.511520
v -0.370690 0.750000 0.462522
v -0.368683 0.750000 0.512522
v -0.370690 0.750000 0.462522
v 0.950000 0.451179 0.462522
v -0.950000 0.451179 0.462522
v -0.950000 0.451179 0.512522
v 0.950000 0.451179 0.512522
v -0.370690 0.451179 0.462522
v -0.370690 0.750000 -0.511520
v -0.950000 0.750000 -0.511520
v -0.950000 0.451179 -0.511520
v -0.370690 0.451179 -0.511520
v -0.950000 0.501179 -0.511520
v -0.421654 0.501179 -0.511520
v -0.950000 0.501179 -0.511520
v -0.421654 0.750000 -0.511520
v -0.950000 0.750000 -0.511520
v -0.421654 0.501179 -0.519258
v -0.950000 0.501179 -0.519258
v -0.421654 0.750000 -0.519258
v -0.950000 0.750000 -0.519258
v -0.685827 0.501179 -0.511520
v -0.685827 0.750000 0.462522
v -0.685827 0.750000 0.462522
v -0.685827 0.750000 -0.511520
v -0.685827 0.501179 -0.511520
v -0.685827 0.750000 -0.511520
v -0.685827 0.501179 -0.519258
v -0.685827 0.750000 -0.519258
vt 0.375000 0.468037
vt 0.625000 0.468037
vt 0.625000 0.500000
vt 0.375000 0.500000
vt 0.625000 0.750000
vt 0.375000 0.750000
vt 0.375000 0.973678
vt 0.625000 0.973678
vt 0.625000 1.000000
vt 0.375000 1.000000
vt 0.343037 0.660461
vt 0.343037 0.740217
vt 0.343037 0.740217
vt 0.343037 0.660461
vt 0.218922 0.660461
vt 0.151322 0.660461
vt 0.151322 0.660461
vt 0.218922 0.660461
vt 0.625000 0.781963
vt 0.375000 0.781963
vt 0.151322 0.740217
vt 0.218922 0.740217
vt 0.343037 0.740217
vt 0.343037 0.750000
vt 0.151322 0.750000
vt 0.375000 0.250000
vt 0.625000 0.250000
vt 0.625000 0.276322
vt 0.375000 0.276322
vt 0.218922 0.660461
vt 0.218922 0.660461
vt 0.209951 0.660461
vt 0.209951 0.660461
vt 0.209951 0.660461
vt 0.209951 0.660461
vt 0.343037 0.750000
vt 0.343037 0.660461
vt 0.343037 0.500000
vt 0.343037 0.500000
vt 0.656963 0.500000
vt 0.151322 0.500000
vt 0.848678 0.500000
vt 0.151322 0.740217
vt 0.151322 0.660461
vt 0.151322 0.740217
vt 0.151322 0.660461
vt 0.151322 0.750000
vt 0.151322 0.500000
vt 0.218922 0.660461
vt 0.875000 0.500000
vt 0.875000 0.750000
vt 0.848678 0.750000
vt 0.656963 0.750000
vt 0.151322 0.660461
vt 0.151322 0.660461
vt 0.151322 0.660461
vt 0.151322 0.660461
vt 0.343037 0.660461
vt 0.343037 0.740217
vt 0.625000 0.000000
vt 0.375000 0.000000
vt 0.180636 0.660461
vt 0.209951 0.660461
vt 0.209951 0.660461
vt 0.180636 0.660461
vt 0.218922 0.740217
vt 0.180636 0.660461
vt 0.151322 0.740217
vt 0.151322 0.660461
vt 0.151322 0.660461
vt 0.151322 0.740217
vt 0.343037 0.660461
vt 0.343037 0.740217
vt 0.180636 0.660461
vt 0.209951 0.660461
vt 0.180636 0.660461
vt 0.180636 0.660461
vt 0.180636 0.660461
vt 0.151322 0.660461
vt 0.180636 0.660461
vt 0.151322 0.660461
vt 0.209951 0.660461
vn 0.0000 0.0000 -1.0000
vn 1.0000 0.0000 0.0000
vn 0.0000 0.0000 1.0000
vn 0.0000 -1.0000 0.0000
vn -1.0000 0.0000 0.0000
vn 0.0000 1.0000 -0.0000
usemtl None
s off
f 9/1/1 10/2/1 8/3/1 7/4/1
f 6/5/2 5/6/2 7/4/2 8/3/2
f 16/7/3 14/8/3 2/9/3 1/10/3
f 31/11/2 32/12/2 27/13/2 23/14/2
f 49/15/4 46/16/4 52/17/4 53/18/4
f 5/6/3 6/5/3 12/19/3 11/20/3
f 25/21/4 39/22/4 24/23/4 18/24/4 17/25/4
f 3/26/1 4/27/1 15/28/1 13/29/1
f 44/30/2 49/15/2 53/18/2 50/31/2
f 22/32/3 41/33/3 55/34/3 57/35/3
f 11/36/5 18/24/5 24/23/5 29/37/5 19/38/5 9/39/5
f 10/40/1 19/38/1 20/41/1 15/42/1
f 47/43/5 46/16/5 37/44/5 38/45/5
f 30/46/2 25/21/2 17/25/2 16/47/2 13/48/2 20/41/2
f 42/49/3 29/37/3 31/11/3 44/30/3
f 10/40/6 15/42/6 4/50/6 2/51/6 14/52/6 12/53/6 6/5/6 8/3/6
f 17/25/3 18/24/3 12/53/3 14/52/3
f 54/54/3 51/55/3 58/56/3 56/57/3
f 35/58/4 36/59/4 38/45/4 37/44/4
f 2/60/5 4/27/5 3/26/5 1/61/5
f 64/62/3 26/63/3 21/64/3 65/65/3
f 24/23/3 39/22/3 43/66/3 32/12/3
f 50/31/1 53/18/1 52/17/1 54/54/1 63/67/1 41/33/1 22/32/1
f 34/68/5 33/69/5 40/70/5 28/71/5
f 39/22/3 25/21/3 34/68/3 43/66/3
f 29/37/3 24/23/3 32/12/3 31/11/3
f 25/21/3 30/46/3 33/69/3 34/68/3
f 45/72/2 48/73/2 36/59/2 35/58/2
f 46/16/1 49/15/1 44/30/1 31/11/1 23/14/1 45/72/1 35/58/1 37/44/1
f 68/74/6 57/35/6 61/75/6 70/76/6
f 26/63/3 42/49/3 44/30/3 21/64/3
f 63/67/3 54/54/3 56/57/3 67/77/3
f 23/14/2 27/13/2 48/73/2 45/72/2
f 21/64/6 44/30/6 50/31/6 22/32/6
f 28/71/5 40/70/5 46/16/5 47/43/5
f 65/65/6 21/64/6 22/32/6 66/78/6
f 40/70/5 33/69/5 51/55/5 54/54/5
f 46/16/5 40/70/5 54/54/5 52/17/5
f 66/78/3 22/32/3 57/35/3 68/74/3
f 67/77/4 56/57/4 60/79/4 69/80/4
f 56/57/5 58/56/5 62/81/5 60/79/5
f 57/35/2 55/34/2 59/82/2 61/75/2
f 55/34/4 67/77/4 69/80/4 59/82/4
f 51/55/3 66/78/3 68/74/3 58/56/3
f 33/69/6 65/65/6 66/78/6 51/55/6
f 41/33/3 63/67/3 67/77/3 55/34/3
f 58/56/6 68/74/6 70/76/6 62/81/6
f 28/71/3 47/43/3 38/45/3 36/59/3 48/73/3 27/13/3 32/12/3 43/66/3 34/68/3
f 42/49/4 26/63/4 64/62/4 30/46/4 20/41/4 19/38/4 29/37/4
f 30/46/3 64/62/3 65/65/3 33/69/3
f 62/81/1 70/76/1 61/75/1 59/82/1 69/80/1 60/79/1
o Esfera_geodésica
v -0.685827 0.626019 -0.531760
v -0.667678 0.639884 -0.522989
v -0.692759 0.639884 -0.517568
v -0.708260 0.639884 -0.531760
v -0.692759 0.639884 -0.545953
v -0.667678 0.639884 -0.540532
v -0.678895 0.662317 -0.517568
v -0.703976 0.662317 -0.522989
v -0.703976 0.662317 -0.540532
v -0.678895 0.662317 -0.545953
v -0.663394 0.662317 -0.531760
v -0.685827 0.676181 -0.531760
v -0.689902 0.629765 -0.523418
v -0.675159 0.629765 -0.526605
v -0.679234 0.637914 -0.518262
v -0.664492 0.637914 -0.531760
v -0.675159 0.629765 -0.536916
v -0.699013 0.629765 -0.531760
v -0.703088 0.637914 -0.523418
v -0.689902 0.629765 -0.540102
v -0.703088 0.637914 -0.540102
v -0.679234 0.637914 -0.545258
v -0.661973 0.651100 -0.526604
v -0.661973 0.651100 -0.536916
v -0.685827 0.651100 -0.515076
v -0.671085 0.651100 -0.518262
v -0.709681 0.651100 -0.526604
v -0.700569 0.651100 -0.518262
v -0.700569 0.651100 -0.545258
v -0.709681 0.651100 -0.536916
v -0.671085 0.651100 -0.545258
v -0.685827 0.651100 -0.548445
v -0.668567 0.664286 -0.523418
v -0.692420 0.664286 -0.518262
v -0.707162 0.664286 -0.531760
v -0.692420 0.664286 -0.545258
v -0.668567 0.664286 -0.540102
v -0.681752 0.672436 -0.523418
v -0.672641 0.672436 -0.531760
v -0.696495 0.672436 -0.526605
v -0.696495 0.672436 -0.536916
v -0.681752 0.672436 -0.540102
vt 0.181819 0.000000
vt 0.227273 0.078731
vt 0.136365 0.078731
vt 0.272728 0.157461
vt 0.318182 0.078731
vt 0.363637 0.157461
vt 0.909091 0.000000
vt 0.954545 0.078731
vt 0.863636 0.078731
vt 0.727273 0.000000
vt 0.772727 0.078731
vt 0.681818 0.078731
vt 0.545455 0.000000
vt 0.590909 0.078731
vt 0.500000 0.078731
vt 0.318182 0.236191
vt 0.090910 0.157461
vt 0.181819 0.157461
vt 0.136365 0.236191
vt 0.818182 0.157461
vt 0.909091 0.157461
vt 0.863636 0.236191
vt 0.636364 0.157461
vt 0.727273 0.157461
vt 0.681818 0.236191
vt 0.454546 0.157461
vt 0.545455 0.157461
vt 0.500000 0.236191
vt 0.227273 0.236191
vt 0.045455 0.236191
vt 0.772727 0.236191
vt 0.590909 0.236191
vt 0.409092 0.236191
vt 0.181819 0.314921
vt 0.272728 0.314921
vt 0.227273 0.393651
vt 0.000000 0.314921
vt 0.090910 0.314921
vt 0.045455 0.393651
vt 0.727273 0.314921
vt 0.818182 0.314921
vt 0.772727 0.393651
vt 0.545455 0.314921
vt 0.636364 0.314921
vt 0.590909 0.393651
vt 0.363637 0.314921
vt 0.454546 0.314921
vt 0.409092 0.393651
vt 0.500000 0.393651
vt 0.454546 0.472382
vt 0.681818 0.393651
vt 0.636364 0.472382
vt 0.863636 0.393651
vt 0.818182 0.472382
vt 0.909091 0.314921
vt 0.136365 0.393651
vt 0.090910 0.472382
vt 0.318182 0.393651
vt 0.272728 0.472382
vt 0.954545 0.236191
vt 1.000000 0.157461
vt 0.409092 0.078731
vt 0.363637 0.000000
vn 0.0025 -1.0000 0.0000
vn 0.4133 -0.8191 0.3976
vn -0.1505 -0.7694 0.6207
vn 0.6478 -0.4003 0.6481
vn 0.8506 -0.5257 0.0000
vn -0.5257 -0.8506 0.0000
vn -0.1505 -0.7694 -0.6207
vn 0.4133 -0.8191 -0.3976
vn 0.9175 -0.0034 0.3976
vn -0.2114 -0.3421 0.9155
vn 0.2044 -0.4159 0.8861
vn 0.0000 0.0000 1.0000
vn -0.8955 -0.4450 0.0000
vn -0.6208 -0.4787 0.6207
vn -0.9175 0.0034 0.3976
vn -0.2114 -0.3421 -0.9155
vn -0.6208 -0.4787 -0.6207
vn -0.4635 -0.0031 -0.8861
vn 0.6478 -0.4003 -0.6481
vn 0.2044 -0.4159 -0.8861
vn 0.4635 0.0031 -0.8861
vn 0.4635 0.0031 0.8861
vn -0.4635 -0.0031 0.8861
vn -0.9175 0.0034 -0.3976
vn 0.0000 0.0000 -1.0000
vn 0.9175 -0.0034 -0.3976
vn 0.2114 0.3421 0.9155
vn 0.6208 0.4787 0.6207
vn 0.1505 0.7694 0.6207
vn -0.6478 0.4003 0.6481
vn -0.2044 0.4159 0.8861
vn -0.4133 0.8191 0.3976
vn -0.6478 0.4003 -0.6481
vn -0.8506 0.5257 0.0000
vn -0.4133 0.8191 -0.3976
vn 0.2114 0.3421 -0.9155
vn -0.2044 0.4159 -0.8861
vn 0.1505 0.7694 -0.6207
vn 0.8955 0.4450 0.0000
vn 0.6208 0.4787 -0.6207
vn 0.5257 0.8506 0.0000
vn -0.0025 1.0000 0.0000
usemtl None
s 1
f 71/83/7 84/84/8 83/85/9
f 72/86/10 84/87/8 86/88/11
f 71/89/7 83/90/9 88/91/12
f 71/92/7 88/93/12 90/94/13
f 71/95/7 90/96/13 87/97/14
f 72/86/10 86/88/11 93/98/15
f 73/99/16 85/100/17 95/101/18
f 74/102/19 89/103/20 97/104/21
f 75/105/22 91/106/23 99/107/24
f 76/108/25 92/109/26 101/110/27
f 72/86/10 93/98/15 96/111/28
f 73/99/16 95/101/18 98/112/29
f 74/102/19 97/104/21 100/113/30
f 75/105/22 99/107/24 102/114/31
f 76/108/25 101/110/27 94/115/32
f 77/116/33 103/117/34 108/118/35
f 78/119/36 104/120/37 110/121/38
f 79/122/39 105/123/40 111/124/41
f 80/125/42 106/126/43 112/127/44
f 81/128/45 107/129/46 109/130/47
f 109/130/47 112/131/44 82/132/48
f 109/130/47 107/129/46 112/131/44
f 107/129/46 80/125/42 112/131/44
f 112/127/44 111/133/41 82/134/48
f 112/127/44 106/126/43 111/133/41
f 106/126/43 79/122/39 111/133/41
f 111/124/41 110/135/38 82/136/48
f 111/124/41 105/123/40 110/135/38
f 105/123/40 78/137/36 110/135/38
f 110/121/38 108/138/35 82/139/48
f 110/121/38 104/120/37 108/138/35
f 104/120/37 77/116/33 108/138/35
f 108/118/35 109/140/47 82/141/48
f 108/118/35 103/117/34 109/140/47
f 103/117/34 81/128/45 109/140/47
f 94/115/32 107/129/46 81/128/45
f 94/115/32 101/110/27 107/129/46
f 101/110/27 80/125/42 107/129/46
f 102/114/31 106/126/43 80/125/42
f 102/114/31 99/107/24 106/126/43
f 99/107/24 79/122/39 106/126/43
f 100/113/30 105/123/40 79/122/39
f 100/113/30 97/104/21 105/123/40
f 97/104/21 78/137/36 105/123/40
f 98/112/29 104/120/37 78/119/36
f 98/112/29 95/101/18 104/120/37
f 95/101/18 77/116/33 104/120/37
f 96/111/28 103/117/34 77/116/33
f 96/111/28 93/98/15 103/117/34
f 93/98/15 81/128/45 103/117/34
f 101/110/27 102/114/31 80/125/42
f 101/110/27 92/109/26 102/114/31
f 92/109/26 75/105/22 102/114/31
f 99/107/24 100/113/30 79/122/39
f 99/107/24 91/106/23 100/113/30
f 91/106/23 74/102/19 100/113/30
f 97/104/21 98/142/29 78/137/36
f 97/104/21 89/103/20 98/142/29
f 89/103/20 73/143/16 98/142/29
f 95/101/18 96/111/28 77/116/33
f 95/101/18 85/100/17 96/111/28
f 85/100/17 72/86/10 96/111/28
f 93/98/15 94/115/32 81/128/45
f 93/98/15 86/88/11 94/115/32
f 86/88/11 76/108/25 94/115/32
f 87/97/14 92/109/26 76/108/25
f 87/97/14 90/96/13 92/109/26
f 90/96/13 75/105/22 92/109/26
f 90/94/13 91/106/23 75/105/22
f 90/94/13 88/93/12 91/106/23
f 88/93/12 74/102/19 91/106/23
f 88/91/12 89/103/20 74/102/19
f 88/91/12 83/90/9 89/103/20
f 83/90/9 73/143/16 89/103/20
f 86/88/11 87/144/14 76/108/25
f 86/88/11 84/87/8 87/144/14
f 84/87/8 71/145/7 87/144/14
f 83/85/9 85/100/17 73/99/16
f 83/85/9 84/84/8 85/100/17
f 84/84/8 72/86/10 85/100/17
