# Blender v2.93.1 OBJ File: 'MueblesOficina.blend'
# www.blender.org
mtllib Silla2.mtl
o Cubo.006
v -0.240296 0.543521 0.294725
v -0.240271 0.610763 0.294974
v -0.294725 0.543521 -0.240296
v -0.294725 0.610744 -0.240296
v 0.294725 0.543521 0.240296
v 0.294750 0.610763 0.240545
v 0.240296 0.543521 -0.294725
v 0.240296 0.610744 -0.294725
v 0.186794 0.543521 -0.289282
v 0.186794 0.610744 -0.289282
v 0.241223 0.543521 0.245739
v 0.241248 0.610763 0.245988
v -0.241223 0.543521 -0.245739
v -0.186769 0.610763 0.289531
v -0.241223 0.610744 -0.245739
v -0.186794 0.543521 0.289282
v -0.289282 0.543521 -0.186794
v -0.289282 0.610744 -0.186794
v 0.245739 0.543521 -0.241223
v 0.245739 0.610744 -0.241223
v 0.192237 0.610744 -0.235780
v 0.192237 0.543521 -0.235780
v -0.235780 0.543521 -0.192237
v -0.235780 0.610744 -0.192237
v -0.245739 0.543521 0.241223
v 0.289307 0.610763 0.187043
v 0.235805 0.610763 0.192486
v 0.235780 0.543521 0.192237
v -0.192237 0.543521 0.235780
v -0.192212 0.610763 0.236029
v -0.245714 0.610763 0.241472
v 0.289282 0.543521 0.186794
v -0.245739 -0.000490 0.241223
v -0.240296 -0.000490 0.294725
v -0.241223 -0.000490 -0.245739
v -0.294725 -0.000490 -0.240296
v 0.245739 -0.000490 -0.241223
v 0.240296 -0.000490 -0.294725
v 0.241223 -0.000490 0.245739
v 0.294725 -0.000490 0.240296
v 0.186794 -0.000490 -0.289282
v 0.235780 -0.000490 0.192237
v -0.186794 -0.000490 0.289282
v -0.192237 -0.000490 0.235780
v -0.289282 -0.000490 -0.186794
v 0.192237 -0.000490 -0.235780
v -0.235780 -0.000490 -0.192237
v 0.289282 -0.000490 0.186794
v 0.290319 0.792774 0.196987
v 0.295762 0.792774 0.250489
v -0.185757 0.792774 0.299474
v -0.239259 0.792774 0.304917
v 0.242259 0.792774 0.255932
v 0.236817 0.792774 0.202430
v -0.191200 0.792774 0.245972
v -0.244702 0.792774 0.251415
v 0.294653 1.283792 0.239587
v 0.300095 1.283792 0.293089
v -0.181424 1.283792 0.342075
v -0.234926 1.283792 0.347518
v 0.246593 1.283792 0.298532
v 0.241150 1.283792 0.245030
v -0.186866 1.283792 0.288573
v -0.240368 1.283792 0.294016
v 0.294749 1.343579 0.240533
v 0.300192 1.343579 0.294035
v -0.181327 1.343579 0.343021
v -0.234829 1.343579 0.348463
v 0.246689 1.343579 0.299478
v 0.241247 1.343579 0.245976
v -0.186770 1.343579 0.289519
v -0.240272 1.343579 0.294961
vt 0.375000 0.215928
vt 0.625000 0.215928
vt 0.625000 0.250000
vt 0.375000 0.250000
vt 0.375000 0.481316
vt 0.625000 0.481316
vt 0.625000 0.500000
vt 0.375000 0.500000
vt 0.375000 0.699015
vt 0.625000 0.699015
vt 0.625000 0.750000
vt 0.375000 0.750000
vt 0.375000 0.950068
vt 0.625000 0.950068
vt 0.625000 1.000000
vt 0.375000 1.000000
vt 0.174932 0.500000
vt 0.174932 0.534072
vt 0.174932 0.534072
vt 0.174932 0.500000
vt 0.625000 0.950068
vt 0.625000 1.000000
vt 0.825068 0.699015
vt 0.875000 0.699015
vt 0.875000 0.699015
vt 0.825068 0.699015
vt 0.174932 0.699015
vt 0.356316 0.699015
vt 0.356316 0.750000
vt 0.174932 0.750000
vt 0.625000 0.768684
vt 0.375000 0.768684
vt 0.375000 0.299932
vt 0.625000 0.299932
vt 0.375000 0.534072
vt 0.356316 0.534072
vt 0.356316 0.534072
vt 0.375000 0.534072
vt 0.643684 0.699015
vt 0.825068 0.750000
vt 0.643684 0.750000
vt 0.643684 0.500000
vt 0.825068 0.500000
vt 0.825068 0.534072
vt 0.643684 0.534072
vt 0.375000 0.299932
vt 0.375000 0.250000
vt 0.356316 0.500000
vt 0.625000 0.534072
vt 0.875000 0.500000
vt 0.875000 0.534072
vt 0.356316 0.500000
vt 0.375000 0.050985
vt 0.625000 0.050985
vt 0.375000 0.000000
vt 0.625000 0.000000
vt 0.125000 0.534072
vt 0.125000 0.699015
vt 0.356316 0.699015
vt 0.375000 0.699015
vt 0.375000 0.750000
vt 0.356316 0.750000
vt 0.125000 0.699015
vt 0.174932 0.699015
vt 0.174932 0.750000
vt 0.125000 0.750000
vt 0.125000 0.500000
vt 0.125000 0.534072
vt 0.375000 0.500000
vt 0.375000 0.481316
vt 0.375000 0.215928
vt 0.375000 0.050985
vt 0.375000 0.000000
vt 0.375000 1.000000
vt 0.375000 0.950068
vt 0.375000 0.768684
vt 0.625000 0.050985
vt 0.625000 0.000000
vt 0.625000 0.000000
vt 0.625000 0.050985
vt 0.875000 0.699015
vt 0.825068 0.699015
vt 0.643684 0.750000
vt 0.643684 0.699015
vt 0.625000 0.699015
vt 0.625000 0.750000
vt 0.825068 0.750000
vt 0.625000 0.768684
vt 0.625000 0.768684
vt 0.625000 0.750000
vt 0.625000 0.750000
vt 0.625000 0.768684
vt 0.825068 0.750000
vt 0.825068 0.699015
vt 0.825068 0.750000
vt 0.625000 0.950068
vt 0.625000 1.000000
vt 0.643684 0.699015
vt 0.625000 0.699015
vt 0.875000 0.699015
vt 0.875000 0.750000
vt 0.625000 0.699015
vt 0.643684 0.699015
vt 0.643684 0.750000
vt 0.625000 0.000000
vt 0.625000 0.050985
vt 0.643684 0.750000
vt 0.625000 0.950068
vt 0.625000 1.000000
vn -0.9949 0.0000 0.1012
vn -0.1012 0.0000 -0.9949
vn 0.9949 0.0000 -0.1012
vn 0.1012 -0.0037 0.9949
vn 0.1011 -0.0548 0.9934
vn -0.1011 0.0548 -0.9934
vn 0.0000 -1.0000 0.0000
vn 0.1012 0.0000 0.9949
vn 0.0000 1.0000 0.0000
vn -0.1008 0.0869 -0.9911
vn 0.1012 -0.0159 0.9947
vn 0.1008 -0.0869 0.9911
vn -0.1012 0.0159 -0.9947
usemtl None
s off
f 17/1/1 18/2/1 4/3/1 3/4/1
f 9/5/2 10/6/2 8/7/2 7/8/2
f 32/9/3 26/10/3 6/11/3 5/12/3
f 16/13/4 14/14/4 2/15/4 1/16/4
f 13/17/3 23/18/3 47/19/3 35/20/3
f 2/15/5 14/14/5 51/21/5 52/22/5
f 30/23/6 31/24/6 56/25/6 55/26/6
f 29/27/7 28/28/7 11/29/7 16/30/7
f 5/12/4 6/11/4 12/31/4 11/32/4
f 13/33/2 15/34/2 10/6/2 9/5/2
f 3/4/2 4/3/2 15/34/2 13/33/2
f 19/35/8 22/36/8 46/37/8 37/38/8
f 27/39/9 30/23/9 14/40/9 12/41/9
f 11/32/4 12/31/4 14/14/4 16/13/4
f 10/42/9 15/43/9 24/44/9 21/45/9
f 3/4/2 13/33/2 35/46/2 36/47/2
f 13/17/7 9/48/7 22/36/7 23/18/7
f 8/7/9 10/42/9 21/45/9 20/49/9
f 15/43/9 4/50/9 18/51/9 24/44/9
f 22/36/1 9/48/1 41/52/1 46/37/1
f 7/8/3 8/7/3 20/49/3 19/35/3
f 25/53/1 31/54/1 18/2/1 17/1/1
f 1/55/1 2/56/1 31/54/1 25/53/1
f 21/45/9 24/44/9 30/23/9 27/39/9
f 17/57/7 23/18/7 29/27/7 25/58/7
f 23/18/7 22/36/7 28/28/7 29/27/7
f 20/49/9 21/45/9 27/39/9 26/10/9
f 24/44/9 18/51/9 31/24/9 30/23/9
f 22/36/7 19/35/7 32/9/7 28/28/7
f 19/35/3 20/49/3 26/10/3 32/9/3
f 42/59/7 48/60/7 40/61/7 39/62/7
f 33/63/7 44/64/7 43/65/7 34/66/7
f 36/67/7 35/20/7 47/19/7 45/68/7
f 41/52/7 38/69/7 37/38/7 46/37/7
f 9/5/2 7/8/2 38/69/2 41/70/2
f 17/1/1 3/4/1 36/47/1 45/71/1
f 28/28/2 32/9/2 48/60/2 42/59/2
f 32/9/3 5/12/3 40/61/3 48/60/3
f 7/8/3 19/35/3 37/38/3 38/69/3
f 1/55/1 25/53/1 33/72/1 34/73/1
f 23/18/8 17/57/8 45/68/8 47/19/8
f 16/13/8 1/16/8 34/74/8 43/75/8
f 25/58/2 29/27/2 44/64/2 33/63/2
f 11/29/1 28/28/1 42/59/1 39/62/1
f 5/12/8 11/32/8 39/76/8 40/61/8
f 29/27/3 16/30/3 43/65/3 44/64/3
f 56/77/1 52/78/1 60/79/1 64/80/1
f 55/26/10 56/25/10 64/81/10 63/82/10
f 27/39/1 12/41/1 53/83/1 54/84/1
f 26/10/6 27/39/6 54/84/6 49/85/6
f 6/11/3 26/10/3 49/85/3 50/86/3
f 31/54/1 2/56/1 52/78/1 56/77/1
f 14/40/3 30/23/3 55/26/3 51/87/3
f 12/31/5 6/11/5 50/86/5 53/88/5
f 61/89/11 58/90/11 66/91/11 69/92/11
f 59/93/3 63/82/3 71/94/3 67/95/3
f 52/22/12 51/21/12 59/96/12 60/97/12
f 49/85/10 54/84/10 62/98/10 57/99/10
f 53/88/12 50/86/12 58/90/12 61/89/12
f 50/86/3 49/85/3 57/99/3 58/90/3
f 71/94/9 72/100/9 68/101/9 67/95/9
f 65/102/9 70/103/9 69/104/9 66/91/9
f 58/90/3 57/99/3 65/102/3 66/91/3
f 63/82/13 64/81/13 72/100/13 71/94/13
f 64/80/1 60/79/1 68/105/1 72/106/1
f 62/98/1 61/107/1 69/104/1 70/103/1
f 60/97/11 59/96/11 67/108/11 68/109/11
f 57/99/13 62/98/13 70/103/13 65/102/13
f 61/89/12 59/96/12 51/21/12 53/88/12
f 53/88/7 51/21/7 55/26/7 54/84/7
f 55/26/10 63/82/10 62/98/10 54/84/10
f 61/89/9 62/98/9 63/82/9 59/96/9
