# Blender v2.93.1 OBJ File: 'WarehouseBox.blend'
# www.blender.org
mtllib WarehouseBox.mtl
o Cube.005
v -0.986461 2.018798 -2.929728
v -0.986461 2.018798 -0.929728
v -2.986461 2.018798 -0.929728
v -2.986460 2.018798 -2.929729
v -0.986460 4.018798 -2.929728
v -0.986461 4.018798 -0.929727
v -2.986461 4.018798 -0.929728
v -2.986460 4.018798 -2.929728
vt 0.000000 0.000000
vt 1.000000 0.000000
vt 1.000000 1.000000
vt 0.000000 1.000000
vt 0.000000 0.000000
vt 1.000000 0.000000
vt 1.000000 1.000000
vt 0.000000 1.000000
vt 1.000000 0.000000
vt 1.000000 1.000000
vt 0.000000 1.000000
vt 0.000000 0.000000
vt 1.000000 0.000000
vt 0.000000 1.000000
vt 0.000000 0.000000
vt 1.000000 0.000000
vt 1.000000 1.000000
vt 1.000000 0.000000
vt 1.000000 1.000000
vt 0.000000 1.000000
vn 0.0000 -1.0000 -0.0000
vn 0.0000 1.0000 0.0000
vn 1.0000 0.0000 0.0000
vn -0.0000 -0.0000 1.0000
vn -1.0000 -0.0000 -0.0000
vn 0.0000 0.0000 -1.0000
usemtl Material.001
s off
f 1/1/1 2/2/1 3/3/1 4/4/1
f 5/5/2 8/6/2 7/7/2 6/8/2
f 1/1/3 5/9/3 6/10/3 2/11/3
f 2/12/4 6/13/4 7/7/4 3/14/4
f 3/15/5 7/16/5 8/17/5 4/4/5
f 5/5/6 1/18/6 4/19/6 8/20/6
o Cube.004
v -0.986461 0.023342 -2.929728
v -0.986461 0.023342 -0.929728
v -2.986461 0.023342 -0.929728
v -2.986460 0.023342 -2.929729
v -0.986460 2.023342 -2.929728
v -0.986461 2.023342 -0.929727
v -2.986461 2.023342 -0.929728
v -2.986460 2.023342 -2.929728
vt 0.000000 0.000000
vt 1.000000 0.000000
vt 1.000000 1.000000
vt 0.000000 1.000000
vt 0.000000 0.000000
vt 1.000000 0.000000
vt 1.000000 1.000000
vt 0.000000 1.000000
vt 1.000000 0.000000
vt 1.000000 1.000000
vt 0.000000 1.000000
vt 0.000000 0.000000
vt 1.000000 0.000000
vt 0.000000 1.000000
vt 0.000000 0.000000
vt 1.000000 0.000000
vt 1.000000 1.000000
vt 1.000000 0.000000
vt 1.000000 1.000000
vt 0.000000 1.000000
vn 0.0000 -1.0000 -0.0000
vn 0.0000 1.0000 0.0000
vn 1.0000 0.0000 0.0000
vn -0.0000 -0.0000 1.0000
vn -1.0000 -0.0000 -0.0000
vn 0.0000 0.0000 -1.0000
usemtl Material.001
s off
f 9/21/7 10/22/7 11/23/7 12/24/7
f 13/25/8 16/26/8 15/27/8 14/28/8
f 9/21/9 13/29/9 14/30/9 10/31/9
f 10/32/10 14/33/10 15/27/10 11/34/10
f 11/35/11 15/36/11 16/37/11 12/24/11
f 13/25/12 9/38/12 12/39/12 16/40/12
o Cube.003
v 2.998776 0.023342 -2.929728
v 2.998776 0.023342 -0.929728
v 0.998776 0.023342 -0.929728
v 0.998777 0.023342 -2.929729
v 2.998777 2.023342 -2.929728
v 2.998776 2.023342 -0.929727
v 0.998776 2.023342 -0.929728
v 0.998777 2.023342 -2.929728
vt 0.000000 0.000000
vt 1.000000 0.000000
vt 1.000000 1.000000
vt 0.000000 1.000000
vt 0.000000 0.000000
vt 1.000000 0.000000
vt 1.000000 1.000000
vt 0.000000 1.000000
vt 1.000000 0.000000
vt 1.000000 1.000000
vt 0.000000 1.000000
vt 0.000000 0.000000
vt 1.000000 0.000000
vt 0.000000 1.000000
vt 1.000000 0.000000
vt 1.000000 1.000000
vt 0.000000 1.000000
vn 0.0000 -1.0000 0.0000
vn 0.0000 1.0000 0.0000
vn 1.0000 0.0000 0.0000
vn -0.0000 -0.0000 1.0000
vn 0.0000 0.0000 -1.0000
usemtl Material.002
s off
f 17/41/13 18/42/13 19/43/13 20/44/13
f 21/45/14 24/46/14 23/47/14 22/48/14
f 17/41/15 21/49/15 22/50/15 18/51/15
f 18/52/16 22/53/16 23/47/16 19/54/16
f 21/45/17 17/55/17 20/56/17 24/57/17
o Cube.002
v 1.000000 2.022253 -2.929728
v 1.000000 2.022253 -0.929728
v -1.000000 2.022253 -0.929728
v -1.000000 2.022253 -2.929729
v 1.000000 4.022253 -2.929728
v 0.999999 4.022253 -0.929727
v -1.000000 4.022253 -0.929728
v -1.000000 4.022253 -2.929728
vt 0.000000 0.000000
vt 1.000000 0.000000
vt 1.000000 1.000000
vt 0.000000 1.000000
vt 0.000000 0.000000
vt 1.000000 0.000000
vt 1.000000 1.000000
vt 0.000000 1.000000
vt 1.000000 0.000000
vt 1.000000 1.000000
vt 0.000000 1.000000
vt 0.000000 0.000000
vt 1.000000 0.000000
vt 0.000000 1.000000
vt 0.000000 0.000000
vt 1.000000 0.000000
vt 1.000000 1.000000
vt 1.000000 0.000000
vt 1.000000 1.000000
vt 0.000000 1.000000
vn 0.0000 -1.0000 -0.0000
vn 0.0000 1.0000 0.0000
vn 1.0000 0.0000 0.0000
vn -0.0000 -0.0000 1.0000
vn -1.0000 -0.0000 -0.0000
vn 0.0000 0.0000 -1.0000
usemtl Material.002
s off
f 25/58/18 26/59/18 27/60/18 28/61/18
f 29/62/19 32/63/19 31/64/19 30/65/19
f 25/58/20 29/66/20 30/67/20 26/68/20
f 26/69/21 30/70/21 31/64/21 27/71/21
f 27/72/22 31/73/22 32/74/22 28/61/22
f 29/62/23 25/75/23 28/76/23 32/77/23
o Cube.001
v 1.000000 0.023342 -2.929728
v 1.000000 0.023342 -0.929728
v -1.000000 0.023342 -0.929728
v -1.000000 0.023342 -2.929729
v 1.000000 2.023342 -2.929728
v 0.999999 2.023342 -0.929727
v -1.000000 2.023342 -0.929728
v -1.000000 2.023342 -2.929728
vt 0.000000 0.000000
vt 1.000000 0.000000
vt 1.000000 1.000000
vt 0.000000 1.000000
vt 0.000000 0.000000
vt 1.000000 0.000000
vt 1.000000 1.000000
vt 0.000000 1.000000
vt 1.000000 0.000000
vt 1.000000 1.000000
vt 0.000000 1.000000
vt 0.000000 0.000000
vt 1.000000 0.000000
vt 0.000000 1.000000
vt 0.000000 0.000000
vt 1.000000 0.000000
vt 1.000000 1.000000
vt 1.000000 0.000000
vt 1.000000 1.000000
vt 0.000000 1.000000
vn 0.0000 -1.0000 -0.0000
vn 0.0000 1.0000 0.0000
vn 1.0000 0.0000 0.0000
vn -0.0000 -0.0000 1.0000
vn -1.0000 -0.0000 -0.0000
vn 0.0000 0.0000 -1.0000
usemtl Material.001
s off
f 33/78/24 34/79/24 35/80/24 36/81/24
f 37/82/25 40/83/25 39/84/25 38/85/25
f 33/78/26 37/86/26 38/87/26 34/88/26
f 34/89/27 38/90/27 39/84/27 35/91/27
f 35/92/28 39/93/28 40/94/28 36/81/28
f 37/82/29 33/95/29 36/96/29 40/97/29
o Cube
v 1.000000 0.023342 -0.940734
v 1.000000 0.023342 1.059266
v -1.000000 0.023342 1.059266
v -1.000000 0.023342 -0.940734
v 1.000000 2.023342 -0.940733
v 0.999999 2.023342 1.059267
v -1.000000 2.023342 1.059266
v -1.000000 2.023342 -0.940734
vt 0.000000 0.000000
vt 1.000000 0.000000
vt 1.000000 1.000000
vt 0.000000 1.000000
vt 0.000000 0.000000
vt 1.000000 0.000000
vt 1.000000 1.000000
vt 0.000000 1.000000
vt 1.000000 0.000000
vt 1.000000 1.000000
vt 0.000000 1.000000
vt 0.000000 0.000000
vt 1.000000 0.000000
vt 0.000000 1.000000
vt 0.000000 0.000000
vt 1.000000 0.000000
vt 1.000000 1.000000
vt 1.000000 0.000000
vt 1.000000 1.000000
vt 0.000000 1.000000
vn 0.0000 -1.0000 -0.0000
vn 0.0000 1.0000 0.0000
vn 1.0000 0.0000 0.0000
vn -0.0000 -0.0000 1.0000
vn -1.0000 -0.0000 -0.0000
vn 0.0000 0.0000 -1.0000
usemtl Material.002
s off
f 41/98/30 42/99/30 43/100/30 44/101/30
f 45/102/31 48/103/31 47/104/31 46/105/31
f 41/98/32 45/106/32 46/107/32 42/108/32
f 42/109/33 46/110/33 47/104/33 43/111/33
f 43/112/34 47/113/34 48/114/34 44/101/34
f 45/102/35 41/115/35 44/116/35 48/117/35
