# Blender v2.92.0 OBJ File: 'PuertaLab.blend'
# www.blender.org
mtllib PuertaLab.mtl
o Cubo
v -0.015000 0.000000 0.600000
v -0.015000 2.200000 0.600000
v -0.015000 0.000000 -0.600000
v -0.015000 2.200000 -0.600000
v 0.015000 0.000000 0.600000
v 0.015000 2.200000 0.600000
v 0.015000 0.000000 -0.600000
v 0.015000 2.200000 -0.600000
v -0.015000 1.035610 0.600000
v -0.015000 1.035610 -0.600000
v 0.015000 1.035610 -0.600000
v 0.015000 1.035610 0.600000
v -0.015000 1.916914 0.600000
v -0.015000 1.916914 -0.600000
v 0.015000 1.916914 -0.600000
v 0.015000 1.916914 0.600000
v -0.015000 0.000000 -0.369231
v -0.015000 2.200000 -0.369231
v 0.015000 0.000000 -0.369231
v 0.015000 2.200000 -0.369231
v -0.015000 0.000000 0.369231
v 0.015000 2.200000 0.369231
v -0.015000 2.200000 0.369231
v 0.015000 0.000000 0.369231
v -0.015000 0.328971 -0.600000
v 0.015000 0.328971 -0.600000
v 0.015000 0.328971 0.600000
v -0.015000 0.328971 0.600000
v -0.015000 0.328971 -0.369231
v 0.015000 0.328971 -0.369231
v -0.015000 0.328971 0.369231
v 0.015000 0.328971 0.369231
v 0.035000 0.328971 -0.600000
v 0.035000 0.000000 -0.600000
v 0.035000 0.000000 -0.369231
v 0.035000 0.328971 0.600000
v 0.035000 0.000000 0.600000
v 0.035000 0.000000 0.369231
v 0.035000 0.328971 -0.369231
v 0.035000 0.328971 0.369231
v -0.035000 0.000000 0.369231
v -0.035000 0.000000 0.600000
v -0.035000 0.328971 -0.600000
v -0.035000 0.000000 -0.600000
v -0.035000 0.000000 -0.369231
v -0.035000 0.328971 -0.369231
v -0.035000 0.328971 0.369231
v -0.035000 0.328971 0.600000
v 0.015000 1.092907 -0.369231
v 0.015000 1.035610 -0.316341
v 0.015000 0.978312 -0.369231
v 0.015000 1.035610 -0.422121
v 0.015000 1.070980 -0.365205
v 0.015000 1.052392 -0.353740
v 0.015000 1.039971 -0.336581
v -0.015000 1.035610 -0.316341
v -0.015000 1.092907 -0.369231
v -0.015000 1.035610 -0.422121
v -0.015000 0.978312 -0.369231
v -0.015000 1.039971 -0.336581
v -0.015000 1.052392 -0.353740
v -0.015000 1.070980 -0.365205
v 0.015000 1.916914 -0.316341
v 0.015000 1.859617 -0.369231
v 0.015000 1.916914 -0.422121
v 0.015000 1.974212 -0.369231
v 0.015000 1.912553 -0.336581
v 0.015000 1.900132 -0.353740
v 0.015000 1.881544 -0.365205
v -0.015000 1.859617 -0.369231
v -0.015000 1.916914 -0.316341
v -0.015000 1.974212 -0.369231
v -0.015000 1.916914 -0.422121
v -0.015000 1.881544 -0.365205
v -0.015000 1.900132 -0.353740
v -0.015000 1.912553 -0.336581
v 0.015000 1.035610 0.316341
v 0.015000 1.092907 0.369231
v 0.015000 1.035610 0.422121
v 0.015000 0.978312 0.369231
v 0.015000 1.039971 0.336581
v 0.015000 1.052392 0.353740
v 0.015000 1.070980 0.365205
v 0.015000 1.859617 0.369231
v 0.015000 1.916914 0.316341
v 0.015000 1.974212 0.369231
v 0.015000 1.916914 0.422121
v 0.015000 1.881544 0.365205
v 0.015000 1.900132 0.353740
v 0.015000 1.912553 0.336581
v -0.015000 1.092907 0.369231
v -0.015000 1.035610 0.316341
v -0.015000 0.978312 0.369231
v -0.015000 1.035610 0.422121
v -0.015000 1.070980 0.365205
v -0.015000 1.052392 0.353740
v -0.015000 1.039971 0.336581
v -0.015000 1.916914 0.316341
v -0.015000 1.859617 0.369231
v -0.015000 1.916914 0.422121
v -0.015000 1.974212 0.369231
v -0.015000 1.912553 0.336581
v -0.015000 1.900132 0.353740
v -0.015000 1.881544 0.365205
v 0.035000 1.859617 -0.369231
v 0.035000 1.916914 -0.316341
v 0.035000 1.876399 -0.331832
v 0.035000 1.881544 -0.365205
v 0.035000 1.900132 -0.353740
v 0.035000 1.912553 -0.336581
v 0.035000 1.035610 -0.316341
v 0.035000 1.092907 -0.369231
v 0.035000 1.076125 -0.331832
v 0.035000 1.039971 -0.336581
v 0.035000 1.052392 -0.353740
v 0.035000 1.070980 -0.365205
v 0.035000 1.092907 0.369231
v 0.035000 1.035610 0.316341
v 0.035000 1.076125 0.331832
v 0.035000 1.070980 0.365205
v 0.035000 1.052392 0.353740
v 0.035000 1.039971 0.336581
v 0.035000 1.916914 0.316341
v 0.035000 1.859617 0.369231
v 0.035000 1.876399 0.331832
v 0.035000 1.912553 0.336581
v 0.035000 1.900132 0.353740
v 0.035000 1.881544 0.365205
v -0.035000 1.035610 0.316341
v -0.035000 1.092907 0.369231
v -0.035000 1.076125 0.331832
v -0.035000 1.039971 0.336581
v -0.035000 1.052392 0.353740
v -0.035000 1.070980 0.365205
v -0.035000 1.092907 -0.369231
v -0.035000 1.035610 -0.316341
v -0.035000 1.076125 -0.331832
v -0.035000 1.070980 -0.365205
v -0.035000 1.052392 -0.353740
v -0.035000 1.039971 -0.336581
v -0.035000 1.859617 0.369231
v -0.035000 1.916914 0.316341
v -0.035000 1.876399 0.331832
v -0.035000 1.881544 0.365205
v -0.035000 1.900132 0.353740
v -0.035000 1.912553 0.336581
v -0.035000 1.916914 -0.316341
v -0.035000 1.859617 -0.369231
v -0.035000 1.876399 -0.331832
v -0.035000 1.912553 -0.336581
v -0.035000 1.900132 -0.353740
v -0.035000 1.881544 -0.365205
v 0.035000 1.867914 -0.285000
v 0.035000 1.825664 -0.324000
v 0.035000 1.876364 -0.331799
v 0.035000 1.862254 -0.304500
v 0.035000 1.846789 -0.318775
v 0.035000 1.126860 -0.324000
v 0.035000 1.084610 -0.285000
v 0.035000 1.076161 -0.331799
v 0.035000 1.105735 -0.318775
v 0.035000 1.090270 -0.304500
v 0.035000 1.084610 0.285000
v 0.035000 1.126860 0.324000
v 0.035000 1.076161 0.331799
v 0.035000 1.090270 0.304500
v 0.035000 1.105735 0.318775
v 0.035000 1.825664 0.324000
v 0.035000 1.867914 0.285000
v 0.035000 1.876364 0.331799
v 0.035000 1.846789 0.318775
v 0.035000 1.862254 0.304500
v -0.035000 1.126860 0.324000
v -0.035000 1.084610 0.285000
v -0.035000 1.076161 0.331799
v -0.035000 1.105735 0.318775
v -0.035000 1.090270 0.304500
v -0.035000 1.084610 -0.285000
v -0.035000 1.126860 -0.324000
v -0.035000 1.076161 -0.331799
v -0.035000 1.090270 -0.304500
v -0.035000 1.105735 -0.318775
v -0.035000 1.867914 0.285000
v -0.035000 1.825664 0.324000
v -0.035000 1.876364 0.331799
v -0.035000 1.862254 0.304500
v -0.035000 1.846789 0.318775
v -0.035000 1.825664 -0.324000
v -0.035000 1.867914 -0.285000
v -0.035000 1.876364 -0.331799
v -0.035000 1.846789 -0.318775
v -0.035000 1.862254 -0.304500
v 0.001000 1.825664 -0.324000
v 0.001000 1.867914 -0.285000
v 0.001000 1.846789 -0.318775
v 0.001000 1.862254 -0.304500
v 0.001000 1.084610 -0.285000
v 0.001000 1.126860 -0.324000
v 0.001000 1.090270 -0.304500
v 0.001000 1.105735 -0.318775
v 0.001000 1.126860 0.324000
v 0.001000 1.084610 0.285000
v 0.001000 1.105735 0.318775
v 0.001000 1.090270 0.304500
v 0.001000 1.867914 0.285000
v 0.001000 1.825664 0.324000
v 0.001000 1.862254 0.304500
v 0.001000 1.846789 0.318775
v 0.001000 1.084610 0.285000
v 0.001000 1.126860 0.324000
v 0.001000 1.090270 0.304500
v 0.001000 1.105735 0.318775
v 0.001000 1.126860 -0.324000
v 0.001000 1.084610 -0.285000
v 0.001000 1.105735 -0.318775
v 0.001000 1.090270 -0.304500
v 0.001000 1.825664 0.324000
v 0.001000 1.867914 0.285000
v 0.001000 1.846789 0.318775
v 0.001000 1.862254 0.304500
v 0.001000 1.867914 -0.285000
v 0.001000 1.825664 -0.324000
v 0.001000 1.862254 -0.304500
v 0.001000 1.846789 -0.318775
vt 0.125000 0.680328
vt 0.375000 0.680328
vt 0.375000 0.750000
vt 0.125000 0.750000
vt 0.125000 0.500000
vt 0.375000 0.500000
vt 0.375000 0.547131
vt 0.125000 0.547131
vt 0.375000 0.680328
vt 0.375000 0.750000
vt 0.412383 0.069672
vt 0.412383 0.202869
vt 0.412383 0.202869
vt 0.412383 0.069672
vt 0.375000 0.500000
vt 0.375000 0.547131
vt 0.125000 0.680328
vt 0.125000 0.547131
vt 0.125000 0.750000
vt 0.375000 0.250000
vt 0.412383 0.250000
vt 0.412383 0.500000
vt 0.412383 0.750000
vt 0.412383 0.750000
vt 0.412383 1.000000
vt 0.375000 1.000000
vt 0.412383 0.547131
vt 0.412383 0.680328
vt 0.412383 0.500000
vt 0.412383 0.680328
vt 0.412383 0.547131
vt 0.375000 0.000000
vt 0.412383 0.000000
vt 0.375000 0.069672
vt 0.375000 0.202869
vt 0.412383 0.250000
vt 0.375000 0.250000
vt 0.412383 0.000000
vt 0.412383 1.000000
vt 0.375000 1.000000
vt 0.125000 0.500000
vt 0.592831 0.079212
vt 0.592831 0.193329
vt 0.592831 0.193329
vt 0.592831 0.079212
vt 0.592831 0.250000
vt 0.625000 0.250000
vt 0.625000 0.500000
vt 0.592831 0.500000
vt 0.492683 0.000000
vt 0.592831 0.000000
vt 0.592831 0.053704
vt 0.586320 0.069672
vt 0.499194 0.069672
vt 0.492683 0.053704
vt 0.592831 0.750000
vt 0.625000 0.750000
vt 0.625000 1.000000
vt 0.592831 1.000000
vt 0.625000 0.680328
vt 0.875000 0.680328
vt 0.875000 0.750000
vt 0.492683 0.750000
vt 0.492683 1.000000
vt 0.592831 0.696296
vt 0.599342 0.680328
vt 0.492683 0.250000
vt 0.492683 0.500000
vt 0.492683 0.193329
vt 0.492683 0.079212
vt 0.492683 0.079212
vt 0.492683 0.193329
vt 0.586320 0.680328
vt 0.499194 0.680328
vt 0.499194 0.680328
vt 0.586320 0.680328
vt 0.486172 0.069672
vt 0.486172 0.202869
vt 0.625000 0.547131
vt 0.599342 0.547131
vt 0.592831 0.536329
vt 0.499194 0.547131
vt 0.586320 0.547131
vt 0.586320 0.547131
vt 0.499194 0.547131
vt 0.586320 0.202869
vt 0.499194 0.202869
vt 0.499194 0.202869
vt 0.586320 0.202869
vt 0.492683 0.670788
vt 0.492683 0.556671
vt 0.492683 0.556671
vt 0.492683 0.670788
vt 0.875000 0.500000
vt 0.875000 0.547131
vt 0.592831 0.556671
vt 0.592831 0.670788
vt 0.492683 0.696296
vt 0.587263 0.562324
vt 0.587263 0.665135
vt 0.587263 0.665135
vt 0.587263 0.562324
vt 0.625000 0.000000
vt 0.625000 0.069672
vt 0.599342 0.069672
vt 0.586320 0.069672
vt 0.499194 0.069672
vt 0.486172 0.680328
vt 0.492683 0.213671
vt 0.592831 0.213671
vt 0.592831 0.670788
vt 0.592831 0.556671
vt 0.498251 0.665135
vt 0.498251 0.562324
vt 0.498251 0.562324
vt 0.498251 0.665135
vt 0.599342 0.202869
vt 0.625000 0.202869
vt 0.486172 0.547131
vt 0.492683 0.536329
vt 0.588223 0.076424
vt 0.582462 0.077830
vt 0.503052 0.077830
vt 0.497291 0.076424
vt 0.497287 0.076418
vt 0.588227 0.076418
vt 0.588223 0.553883
vt 0.582462 0.555290
vt 0.503052 0.555289
vt 0.497291 0.553883
vt 0.497287 0.553877
vt 0.588227 0.553877
vt 0.498251 0.084865
vt 0.498251 0.187676
vt 0.497291 0.196117
vt 0.497287 0.196123
vt 0.582462 0.672170
vt 0.503052 0.672170
vt 0.503052 0.672170
vt 0.582462 0.672170
vt 0.582462 0.077830
vt 0.503052 0.077830
vt 0.582462 0.194711
vt 0.503052 0.194711
vt 0.503052 0.194711
vt 0.582462 0.194711
vt 0.587263 0.084865
vt 0.587263 0.187676
vt 0.587263 0.187676
vt 0.587263 0.084865
vt 0.588223 0.673576
vt 0.588227 0.673582
vt 0.497291 0.673576
vt 0.497287 0.673582
vt 0.498251 0.084865
vt 0.498251 0.187676
vt 0.588223 0.196117
vt 0.588227 0.196123
vt 0.496702 0.547131
vt 0.494590 0.547131
vt 0.493179 0.547131
vt 0.492683 0.547131
vt 0.492683 0.196980
vt 0.492683 0.200075
vt 0.492683 0.202143
vt 0.492683 0.202869
vt 0.592831 0.553020
vt 0.592831 0.549925
vt 0.592831 0.547857
vt 0.592831 0.547131
vt 0.588812 0.202869
vt 0.590924 0.202869
vt 0.592336 0.202869
vt 0.592831 0.202869
vt 0.492683 0.674439
vt 0.492683 0.677534
vt 0.492683 0.679602
vt 0.492683 0.680328
vt 0.588812 0.680328
vt 0.590924 0.680328
vt 0.592336 0.680328
vt 0.592831 0.680328
vt 0.496702 0.069672
vt 0.494590 0.069672
vt 0.493179 0.069672
vt 0.492683 0.069672
vt 0.592831 0.075561
vt 0.592831 0.072466
vt 0.592831 0.070398
vt 0.592831 0.069672
vt 0.588812 0.547131
vt 0.590924 0.547131
vt 0.592336 0.547131
vt 0.592831 0.547131
vt 0.492683 0.553020
vt 0.492683 0.549925
vt 0.492683 0.547857
vt 0.492683 0.547131
vt 0.496702 0.680328
vt 0.494590 0.680328
vt 0.493179 0.680328
vt 0.492683 0.680328
vt 0.592831 0.674439
vt 0.592831 0.677534
vt 0.592831 0.679602
vt 0.592831 0.680328
vt 0.492683 0.075561
vt 0.492683 0.072466
vt 0.492683 0.070398
vt 0.492683 0.069672
vt 0.496702 0.202869
vt 0.494590 0.202869
vt 0.493179 0.202869
vt 0.492683 0.202869
vt 0.588812 0.069672
vt 0.590924 0.069672
vt 0.592336 0.069672
vt 0.592831 0.069672
vt 0.592831 0.196980
vt 0.592831 0.200075
vt 0.592831 0.202143
vt 0.592831 0.202869
vt 0.492683 0.674439
vt 0.492683 0.680328
vt 0.492683 0.680328
vt 0.496702 0.680328
vt 0.592831 0.674439
vt 0.592831 0.680328
vt 0.592831 0.680328
vt 0.588812 0.680328
vt 0.588812 0.547131
vt 0.592831 0.547131
vt 0.592831 0.547131
vt 0.592831 0.553020
vt 0.492683 0.553020
vt 0.492683 0.547131
vt 0.492683 0.547131
vt 0.496702 0.547131
vt 0.496702 0.069672
vt 0.492683 0.069672
vt 0.492683 0.069672
vt 0.492683 0.075561
vt 0.496702 0.202869
vt 0.492683 0.202869
vt 0.492683 0.202869
vt 0.492683 0.196980
vt 0.592831 0.196980
vt 0.592831 0.202869
vt 0.592831 0.202869
vt 0.588812 0.202869
vt 0.592831 0.075561
vt 0.592831 0.069672
vt 0.592831 0.069672
vt 0.588812 0.069672
vt 0.587263 0.558807
vt 0.587263 0.556232
vt 0.587263 0.555290
vt 0.500652 0.555289
vt 0.498894 0.555289
vt 0.498251 0.555289
vt 0.498251 0.668652
vt 0.498251 0.671227
vt 0.498251 0.672170
vt 0.584862 0.672170
vt 0.586620 0.672170
vt 0.587263 0.672170
vt 0.500652 0.077830
vt 0.498894 0.077830
vt 0.498251 0.077830
vt 0.498251 0.191193
vt 0.498251 0.193768
vt 0.498251 0.194711
vt 0.587263 0.081348
vt 0.587263 0.078773
vt 0.587263 0.077830
vt 0.584862 0.194711
vt 0.586620 0.194711
vt 0.587263 0.194711
vt 0.584862 0.671855
vt 0.587049 0.668652
vt 0.587263 0.668652
vt 0.582462 0.555290
vt 0.584862 0.555290
vt 0.584862 0.555604
vt 0.587049 0.558807
vt 0.498251 0.558807
vt 0.498466 0.558807
vt 0.500652 0.555604
vt 0.503052 0.555289
vt 0.498465 0.668652
vt 0.500652 0.671855
vt 0.500652 0.672170
vt 0.500652 0.078145
vt 0.498466 0.081348
vt 0.498251 0.081348
vt 0.500652 0.194711
vt 0.500652 0.194396
vt 0.498465 0.191193
vt 0.587049 0.081348
vt 0.584862 0.078145
vt 0.584862 0.077830
vt 0.584862 0.194396
vt 0.587049 0.191193
vt 0.587263 0.191193
vn 0.0000 -1.0000 0.0000
vn 0.0000 1.0000 0.0000
vn 0.0000 0.0000 -1.0000
vn 0.0000 0.0000 1.0000
vn 1.0000 0.0000 0.0000
vn -1.0000 -0.0000 0.0000
vn 0.0000 -0.9776 0.2107
vn 0.0000 -0.8100 0.5864
vn 0.0000 -0.5250 0.8511
vn 0.0000 -0.1806 0.9836
vn 0.0000 0.9776 0.2106
vn 0.0000 0.8100 0.5864
vn 0.0000 0.5250 0.8511
vn 0.0000 0.1806 0.9836
vn 0.0000 0.1806 -0.9836
vn 0.0000 0.5250 -0.8511
vn 0.0000 0.8100 -0.5864
vn 0.0000 0.9776 -0.2106
vn 0.0000 -0.9776 -0.2107
vn 0.0000 -0.8100 -0.5864
vn 0.0000 -0.5250 -0.8511
vn 0.0000 -0.1806 -0.9836
vn 0.0000 -0.2401 -0.9707
vn 0.0000 -0.6783 -0.7348
vn 0.0000 -0.9604 -0.2788
vn 0.0000 -0.2401 0.9707
vn 0.0000 -0.6783 0.7348
vn 0.0000 -0.9604 0.2788
vn 0.0000 0.9604 0.2788
vn 0.0000 0.6783 0.7348
vn 0.0000 0.2401 0.9707
vn 0.0000 0.9604 -0.2788
vn 0.0000 0.6783 -0.7348
vn 0.0000 0.2401 -0.9707
usemtl Borde
s off
f 21/1/1 24/2/1 5/3/1 1/4/1
f 3/5/1 7/6/1 19/7/1 17/8/1
f 17/8/1 19/7/1 24/2/1 21/1/1
f 5/3/1 24/2/1 38/9/1 37/10/1
f 31/11/2 29/12/2 46/13/2 47/14/2
f 19/7/1 7/6/1 34/15/1 35/16/1
f 17/8/1 21/1/1 41/17/1 45/18/1
f 21/1/1 1/4/1 42/19/1 41/17/1
f 3/20/3 25/21/3 26/22/3 7/6/3
f 27/23/4 5/3/4 37/10/4 36/24/4
f 5/3/4 27/23/4 28/25/4 1/26/4
f 35/16/5 39/27/5 40/28/5 38/9/5
f 34/15/5 33/29/5 39/27/5 35/16/5
f 38/9/5 40/28/5 36/24/5 37/10/5
f 32/30/2 27/23/2 36/24/2 40/28/2
f 24/2/1 19/7/1 35/16/1 38/9/1
f 7/6/3 26/22/3 33/29/3 34/15/3
f 26/22/2 30/31/2 39/27/2 33/29/2
f 30/31/2 32/30/2 40/28/2 39/27/2
f 42/32/6 48/33/6 47/14/6 41/34/6
f 41/34/6 47/14/6 46/13/6 45/35/6
f 45/35/6 46/13/6 43/36/6 44/37/6
f 28/38/2 31/11/2 47/14/2 48/33/2
f 25/21/3 3/20/3 44/37/3 43/36/3
f 1/26/4 28/25/4 48/39/4 42/40/4
f 29/12/2 25/21/2 43/36/2 46/13/2
f 3/5/1 17/8/1 45/18/1 44/41/1
usemtl Puerta
f 98/42/2 71/43/2 147/44/2 142/45/2
f 14/46/3 4/47/3 8/48/3 15/49/3
f 9/50/6 13/51/6 100/52/6 99/53/6 91/54/6 94/55/6
f 16/56/4 6/57/4 2/58/4 13/59/4
f 22/60/2 23/61/2 2/62/2 6/57/2
f 27/23/4 12/63/4 9/64/4 28/25/4
f 87/65/5 86/66/5 22/60/5 6/57/5 16/56/5
f 25/21/3 10/67/3 11/68/3 26/22/3
f 56/69/1 92/70/1 129/71/1 136/72/1
f 12/63/4 16/56/4 13/59/4 9/64/4
f 84/73/4 78/74/4 117/75/4 124/76/4
f 10/67/3 14/46/3 15/49/3 11/68/3
f 31/11/6 93/77/6 92/70/6 56/69/6 59/78/6 29/12/6
f 15/49/5 8/48/5 20/79/5 66/80/5 65/81/5
f 49/82/3 64/83/3 105/84/3 112/85/3
f 70/86/3 57/87/3 135/88/3 148/89/3
f 77/90/1 50/91/1 111/92/1 118/93/1
f 8/48/2 4/94/2 18/95/2 20/79/2
f 63/96/5 66/80/5 20/79/5 22/60/5 86/66/5 85/97/5
f 79/98/5 78/74/5 84/73/5 87/65/5 16/56/5 12/63/5
f 153/99/1 169/100/1 205/101/1 194/102/1
f 13/51/6 2/103/6 23/104/6 101/105/6 100/52/6
f 91/54/4 99/53/4 141/106/4 130/107/4
f 32/30/5 80/108/5 79/98/5 12/63/5 27/23/5
f 58/109/6 57/87/6 70/86/6 73/110/6 14/46/6 10/67/6
f 20/79/2 18/95/2 23/61/2 22/60/2
f 63/96/2 85/97/2 123/111/2 106/112/2
f 163/113/2 159/114/2 197/115/2 202/116/2
f 73/110/6 72/117/6 18/118/6 4/47/6 14/46/6
f 30/31/5 51/119/5 50/91/5 77/90/5 80/108/5 32/30/5
f 11/68/5 15/49/5 65/81/5 64/83/5 49/82/5 52/120/5
f 185/121/6 184/122/6 173/123/6 175/124/6 131/125/6 130/107/6 141/106/6 143/126/6
f 29/12/6 59/78/6 58/109/6 10/67/6 25/21/6
f 28/38/6 9/50/6 94/55/6 93/77/6 31/11/6
f 98/42/6 101/105/6 23/104/6 18/118/6 72/117/6 71/43/6
f 155/127/5 154/128/5 158/129/5 160/130/5 113/131/5 112/85/5 105/84/5 107/132/5
f 175/124/6 174/133/6 178/134/6 180/135/6 137/136/6 136/72/6 129/71/6 131/125/6
f 168/137/3 164/138/3 201/139/3 206/140/3
f 173/123/3 184/122/3 217/141/3 210/142/3
f 188/143/4 179/144/4 213/145/4 222/146/4
f 183/147/1 189/148/1 221/149/1 218/150/1
f 170/151/5 169/100/5 153/99/5 155/127/5 107/132/5 106/112/5 123/111/5 125/152/5
f 165/153/5 164/138/5 168/137/5 170/151/5 125/152/5 124/76/5 117/75/5 119/154/5
f 160/130/5 159/114/5 163/113/5 165/153/5 119/154/5 118/93/5 111/92/5 113/131/5
f 178/134/2 174/133/2 209/155/2 214/156/2
f 190/157/6 189/148/6 183/147/6 185/121/6 143/126/6 142/45/6 147/44/6 149/158/6
f 180/135/6 179/144/6 188/143/6 190/157/6 149/158/6 148/89/6 135/88/6 137/136/6
f 49/82/5 53/159/5 54/160/5 55/161/5 50/162/5 51/119/5 52/120/5
f 56/69/6 60/163/6 61/164/6 62/165/6 57/166/6 58/109/6 59/78/6
f 63/96/5 67/167/5 68/168/5 69/169/5 64/170/5 65/81/5 66/80/5
f 70/86/6 74/171/6 75/172/6 76/173/6 71/174/6 72/117/6 73/110/6
f 77/90/5 81/175/5 82/176/5 83/177/5 78/178/5 79/98/5 80/108/5
f 84/73/5 88/179/5 89/180/5 90/181/5 85/182/5 86/66/5 87/65/5
f 91/54/6 95/183/6 96/184/6 97/185/6 92/186/6 93/77/6 94/55/6
f 98/42/6 102/187/6 103/188/6 104/189/6 99/190/6 100/52/6 101/105/6
f 105/84/5 108/191/5 107/132/5
f 108/191/5 109/192/5 107/132/5
f 109/192/5 110/193/5 107/132/5
f 110/193/5 106/194/5 107/132/5
f 111/92/5 114/195/5 113/131/5
f 114/195/5 115/196/5 113/131/5
f 115/196/5 116/197/5 113/131/5
f 116/197/5 112/198/5 113/131/5
f 117/75/5 120/199/5 119/154/5
f 120/199/5 121/200/5 119/154/5
f 121/200/5 122/201/5 119/154/5
f 122/201/5 118/202/5 119/154/5
f 123/111/5 126/203/5 125/152/5
f 126/203/5 127/204/5 125/152/5
f 127/204/5 128/205/5 125/152/5
f 128/205/5 124/206/5 125/152/5
f 129/71/6 132/207/6 131/125/6
f 132/207/6 133/208/6 131/125/6
f 133/208/6 134/209/6 131/125/6
f 134/209/6 130/210/6 131/125/6
f 135/88/6 138/211/6 137/136/6
f 138/211/6 139/212/6 137/136/6
f 139/212/6 140/213/6 137/136/6
f 140/213/6 136/214/6 137/136/6
f 141/106/6 144/215/6 143/126/6
f 144/215/6 145/216/6 143/126/6
f 145/216/6 146/217/6 143/126/6
f 146/217/6 142/218/6 143/126/6
f 147/44/6 150/219/6 149/158/6
f 150/219/6 151/220/6 149/158/6
f 151/220/6 152/221/6 149/158/6
f 152/221/6 148/222/6 149/158/6
f 77/90/7 118/93/7 122/223/7 81/175/7
f 81/175/8 122/223/8 121/224/8 82/225/8
f 82/225/9 121/224/9 120/199/9 83/226/9
f 83/226/10 120/199/10 117/75/10 78/74/10
f 123/111/11 85/97/11 90/227/11 126/203/11
f 126/203/12 90/227/12 89/228/12 127/229/12
f 127/229/13 89/228/13 88/179/13 128/230/13
f 128/230/14 88/179/14 84/73/14 124/76/14
f 105/84/15 64/83/15 69/231/15 108/191/15
f 108/191/16 69/231/16 68/232/16 109/233/16
f 109/233/17 68/232/17 67/167/17 110/234/17
f 110/234/18 67/167/18 63/96/18 106/112/18
f 111/92/19 50/91/19 55/235/19 114/195/19
f 114/195/20 55/235/20 54/236/20 115/237/20
f 115/237/21 54/236/21 53/159/21 116/238/21
f 116/238/22 53/159/22 49/82/22 112/85/22
f 91/54/10 130/107/10 134/239/10 95/183/10
f 95/183/9 134/239/9 133/240/9 96/241/9
f 96/241/8 133/240/8 132/207/8 97/242/8
f 97/242/7 132/207/7 129/71/7 92/70/7
f 135/88/22 57/87/22 62/243/22 138/211/22
f 138/211/21 62/243/21 61/244/21 139/245/21
f 139/245/20 61/244/20 60/163/20 140/246/20
f 140/246/19 60/163/19 56/69/19 136/72/19
f 147/44/18 71/43/18 76/247/18 150/219/18
f 150/219/17 76/247/17 75/248/17 151/249/17
f 151/249/16 75/248/16 74/171/16 152/250/16
f 152/250/15 74/171/15 70/86/15 148/89/15
f 98/42/11 142/45/11 146/251/11 102/187/11
f 102/187/12 146/251/12 145/252/12 103/253/12
f 103/253/13 145/252/13 144/215/13 104/254/13
f 104/254/14 144/215/14 141/106/14 99/53/14
f 26/22/5 11/68/5 52/120/5 51/119/5 30/31/5
f 153/99/5 156/255/5 155/127/5
f 156/255/5 157/256/5 155/127/5
f 157/256/5 154/257/5 155/127/5
f 158/129/5 161/258/5 160/130/5
f 161/258/5 162/259/5 160/130/5
f 162/259/5 159/260/5 160/130/5
f 163/113/5 166/261/5 165/153/5
f 166/261/5 167/262/5 165/153/5
f 167/262/5 164/263/5 165/153/5
f 168/137/5 171/264/5 170/151/5
f 171/264/5 172/265/5 170/151/5
f 172/265/5 169/266/5 170/151/5
f 173/123/6 176/267/6 175/124/6
f 176/267/6 177/268/6 175/124/6
f 177/268/6 174/269/6 175/124/6
f 178/134/6 181/270/6 180/135/6
f 181/270/6 182/271/6 180/135/6
f 182/271/6 179/272/6 180/135/6
f 183/147/6 186/273/6 185/121/6
f 186/273/6 187/274/6 185/121/6
f 187/274/6 184/275/6 185/121/6
f 188/143/6 191/276/6 190/157/6
f 191/276/6 192/277/6 190/157/6
f 192/277/6 189/278/6 190/157/6
f 168/137/23 206/140/23 208/279/23 171/264/23
f 171/264/24 208/279/24 207/280/24 172/281/24
f 172/281/25 207/280/25 205/101/25 169/100/25
f 193/282/26 154/128/26 157/283/26 195/284/26
f 195/284/27 157/283/27 156/255/27 196/285/27
f 196/285/28 156/255/28 153/99/28 194/102/28
f 197/115/29 159/114/29 162/286/29 199/287/29
f 199/287/30 162/286/30 161/258/30 200/288/30
f 200/288/31 161/258/31 158/129/31 198/289/31
f 163/113/32 202/116/32 204/290/32 166/261/32
f 166/261/33 204/290/33 203/291/33 167/292/33
f 167/292/34 203/291/34 201/139/34 164/138/34
f 173/123/34 210/142/34 212/293/34 176/267/34
f 176/267/33 212/293/33 211/294/33 177/295/33
f 177/295/32 211/294/32 209/155/32 174/133/32
f 213/145/31 179/144/31 182/296/31 215/297/31
f 215/297/30 182/296/30 181/270/30 216/298/30
f 216/298/29 181/270/29 178/134/29 214/156/29
f 183/147/25 218/150/25 220/299/25 186/273/25
f 186/273/24 220/299/24 219/300/24 187/301/24
f 187/301/23 219/300/23 217/141/23 184/122/23
f 188/143/26 222/146/26 224/302/26 191/276/26
f 191/276/27 224/302/27 223/303/27 192/304/27
f 192/304/28 223/303/28 221/149/28 189/148/28
f 158/129/4 154/128/4 193/282/4 198/289/4
usemtl Cristak
f 197/115/5 199/287/5 200/288/5 198/289/5 193/282/5 195/284/5 196/285/5 194/102/5 205/101/5 207/280/5 208/279/5 206/140/5 201/139/5 203/291/5 204/290/5 202/116/5
f 209/155/6 211/294/6 212/293/6 210/142/6 217/141/6 219/300/6 220/299/6 218/150/6 221/149/6 223/303/6 224/302/6 222/146/6 213/145/6 215/297/6 216/298/6 214/156/6
