# Blender v2.92.0 OBJ File: 'PuertaGrande.blend'
# www.blender.org
mtllib PuertaGrande.mtl
o Cube_Cube.003
v -0.050000 2.000000 -1.200000
v -0.050000 0.000000 -1.200000
v -0.050000 2.000000 1.200000
v -0.050000 -0.000000 1.200000
v 0.050000 2.000000 -1.200000
v 0.050000 0.000000 -1.200000
v 0.050000 2.000000 1.200000
v 0.050000 -0.000000 1.200000
v -0.050000 2.000000 -0.900000
v -0.050000 0.000000 -0.900000
v 0.050000 2.000000 -0.900000
v 0.050000 0.000000 -0.900000
v -0.050000 -0.000000 0.900000
v 0.050000 2.000000 0.900000
v -0.050000 2.000000 0.900000
v 0.050000 -0.000000 0.900000
v -0.050000 0.272727 -1.200000
v -0.050000 0.272727 1.200000
v 0.050000 0.272727 1.200000
v 0.050000 0.272727 -1.200000
v 0.050000 0.272727 -0.900000
v -0.050000 0.272727 -0.900000
v 0.050000 0.272727 0.900000
v -0.050000 0.272727 0.900000
v -0.050000 1.000000 1.200000
v 0.050000 1.000000 1.200000
v 0.050000 1.000000 -1.200000
v 0.050000 1.000000 -0.900000
v -0.050000 1.000000 -0.900000
v 0.050000 1.000000 0.900000
v -0.050000 1.000000 0.900000
v -0.050000 1.000000 -1.200000
v -0.050000 1.272727 1.200000
v 0.050000 1.272727 1.200000
v 0.050000 1.272727 -1.200000
v 0.050000 1.272727 -0.900000
v -0.050000 1.272727 -0.900000
v 0.050000 1.272727 0.900000
v -0.050000 1.272727 0.900000
v -0.050000 1.272727 -1.200000
v -0.050000 2.000000 0.150000
v 0.050000 0.000000 0.150000
v -0.050000 0.000000 0.150000
v 0.050000 2.000000 0.150000
v -0.050000 0.272727 0.150000
v 0.050000 0.272727 0.150000
v 0.050000 1.000000 0.150000
v -0.050000 1.000000 0.150000
v -0.050000 1.272727 0.150000
v 0.050000 1.272727 0.150000
v -0.050000 2.000000 -0.150000
v 0.050000 0.000000 -0.150000
v 0.050000 0.272727 -0.150000
v 0.050000 1.000000 -0.150000
v 0.050000 1.272727 -0.150000
v -0.050000 0.000000 -0.150000
v 0.050000 2.000000 -0.150000
v -0.050000 0.272727 -0.150000
v -0.050000 1.000000 -0.150000
v -0.050000 1.272727 -0.150000
v 0.030000 1.381818 -0.787500
v 0.030000 1.890909 -0.787500
v 0.030000 1.890909 0.262500
v 0.030000 1.890909 0.787500
v 0.030000 1.381818 0.787500
v 0.030000 0.381818 -0.262500
v 0.030000 0.381818 -0.787500
v 0.030000 0.890909 -0.787500
v 0.030000 0.381818 0.787500
v 0.030000 0.890909 0.787500
v 0.030000 0.890909 -0.262500
v 0.030000 1.381818 -0.262500
v 0.030000 0.381818 0.262500
v 0.030000 0.890909 0.262500
v 0.030000 1.381818 0.262500
v 0.030000 1.890909 -0.262500
v -0.030000 1.890909 -0.262500
v -0.030000 1.890909 -0.787500
v -0.030000 1.381818 -0.787500
v -0.030000 1.381818 0.787500
v -0.030000 1.890909 0.787500
v -0.030000 0.381818 0.262500
v -0.030000 0.381818 0.787500
v -0.030000 0.381818 -0.787500
v -0.030000 0.890909 -0.787500
v -0.030000 0.890909 0.787500
v -0.030000 0.890909 0.262500
v -0.030000 1.381818 0.262500
v -0.030000 1.890909 0.262500
v -0.030000 0.381818 -0.262500
v -0.030000 0.890909 -0.262500
v -0.030000 1.381818 -0.262500
v -0.050000 2.200000 -0.900000
v -0.050000 2.200000 -1.200000
v 0.050000 2.200000 1.200000
v -0.050000 2.200000 1.200000
v 0.050000 2.200000 0.900000
v 0.050000 2.200000 -1.200000
v -0.050000 2.200000 -0.150000
v 0.050000 2.200000 -0.900000
v 0.050000 2.200000 0.150000
v -0.050000 2.200000 0.900000
v -0.050000 2.200000 0.150000
v 0.050000 2.200000 -0.150000
vt 0.591212 0.202693
vt 0.625000 0.202693
vt 0.625000 0.250000
vt 0.591212 0.250000
vt 0.625000 0.500000
vt 0.591212 0.500000
vt 0.591212 0.719875
vt 0.625000 0.719875
vt 0.625000 0.750000
vt 0.591212 0.750000
vt 0.625000 1.000000
vt 0.591212 1.000000
vt 0.375000 0.719875
vt 0.375000 0.750000
vt 0.375000 0.750000
vt 0.375000 0.719875
vt 0.875000 0.719875
vt 0.875000 0.750000
vt 0.625000 0.660209
vt 0.875000 0.660209
vt 0.375000 0.500000
vt 0.375000 0.547307
vt 0.375000 0.547307
vt 0.375000 0.500000
vt 0.591212 0.660209
vt 0.591212 0.000000
vt 0.625000 0.000000
vt 0.625000 0.030125
vt 0.591212 0.030125
vt 0.625000 0.547307
vt 0.591212 0.547307
vt 0.375000 0.000000
vt 0.375000 0.030125
vt 0.375000 0.030125
vt 0.375000 0.000000
vt 0.875000 0.500000
vt 0.875000 0.547307
vt 0.591212 0.116409
vt 0.625000 0.116409
vt 0.483106 0.116409
vt 0.591212 0.116409
vt 0.483106 0.116409
vt 0.483106 0.500000
vt 0.483106 0.547307
vt 0.483106 0.000000
vt 0.483106 0.030125
vt 0.451545 0.547307
vt 0.451545 0.547307
vt 0.375000 0.547307
vt 0.483106 0.750000
vt 0.483106 1.000000
vt 0.483106 0.719875
vt 0.483106 0.250000
vt 0.483106 0.202693
vt 0.451545 0.202693
vt 0.451545 0.250000
vt 0.451545 0.500000
vt 0.451545 0.719875
vt 0.451545 0.750000
vt 0.451545 1.000000
vt 0.451545 0.660209
vt 0.483106 0.660209
vt 0.451545 0.000000
vt 0.451545 0.030125
vt 0.451545 0.116409
vt 0.125000 0.547307
vt 0.125000 0.633591
vt 0.125000 0.633591
vt 0.125000 0.547307
vt 0.591212 0.633591
vt 0.483106 0.633591
vt 0.483106 0.633591
vt 0.591212 0.633591
vt 0.375000 1.000000
vt 0.375000 0.250000
vt 0.375000 0.202693
vt 0.591212 0.660209
vt 0.483106 0.660209
vt 0.375000 0.089791
vt 0.451545 0.089791
vt 0.375000 0.116409
vt 0.483106 0.089791
vt 0.451545 0.633591
vt 0.483106 0.547307
vt 0.591212 0.089791
vt 0.625000 0.089791
vt 0.625000 0.633591
vt 0.375000 0.660209
vt 0.375000 0.660209
vt 0.875000 0.633591
vt 0.451545 0.202693
vt 0.451545 0.116409
vt 0.451545 0.089791
vt 0.451545 0.030125
vt 0.375000 0.633591
vt 0.375000 1.000000
vt 0.591212 0.719875
vt 0.483106 0.719875
vt 0.375000 0.660209
vt 0.451545 0.660209
vt 0.451545 0.719875
vt 0.375000 0.719875
vt 0.451545 0.633591
vt 0.375000 0.633591
vt 0.591212 0.547307
vt 0.591212 0.202693
vt 0.483106 0.202693
vt 0.375000 0.116409
vt 0.375000 0.202693
vt 0.483106 0.030125
vt 0.591212 0.030125
vt 0.591212 0.089791
vt 0.483106 0.089791
vt 0.375000 0.030125
vt 0.375000 0.089791
vt 0.125000 0.660209
vt 0.125000 0.719875
vt 0.125000 0.719875
vt 0.125000 0.660209
vt 0.125000 0.719875
vt 0.125000 0.750000
vt 0.125000 0.660209
vt 0.125000 0.500000
vt 0.125000 0.547307
vt 0.375000 0.633591
vt 0.125000 0.633591
vt 0.375000 0.250000
vt 0.375000 0.116409
vt 0.375000 0.089791
vt 0.375000 0.202693
vn -1.0000 0.0000 0.0000
vn 0.0000 0.0000 1.0000
vn 1.0000 0.0000 0.0000
vn 0.0000 0.0000 -1.0000
vn 0.0000 -1.0000 -0.0000
vn -0.9846 -0.0000 0.1750
vn 0.9846 0.0000 -0.1750
vn -0.9836 -0.1803 0.0000
vn 0.9846 -0.0000 0.1750
vn 0.9836 -0.1803 -0.0000
vn -0.9836 0.1803 0.0000
vn 0.9836 0.1803 0.0000
vn -0.9846 0.0000 -0.1750
vn 0.0000 1.0000 0.0000
usemtl None
s off
f 24/1/1 13/2/1 4/3/1 18/4/1
f 18/4/2 4/3/2 8/5/2 19/6/2
f 21/7/3 12/8/3 6/9/3 20/10/3
f 20/10/4 6/9/4 2/11/4 17/12/4
f 11/13/3 5/14/3 98/15/3 100/16/3
f 12/8/5 10/17/5 2/18/5 6/9/5
f 52/19/5 56/20/5 10/17/5 12/8/5
f 7/21/3 14/22/3 97/23/3 95/24/3
f 53/25/3 52/19/3 12/8/3 21/7/3
f 17/26/1 2/27/1 10/28/1 22/29/1
f 19/6/3 8/5/3 16/30/3 23/31/3
f 1/32/1 9/33/1 93/34/1 94/35/1
f 8/5/5 4/36/5 13/37/5 16/30/5
f 45/38/1 43/39/1 13/2/1 24/1/1
f 48/40/6 45/38/6 82/41/6 87/42/6
f 26/43/3 19/6/3 23/31/3 30/44/3
f 32/45/1 17/26/1 22/29/1 29/46/1
f 14/22/7 38/47/7 65/48/7 64/49/7
f 27/50/4 20/10/4 17/12/4 32/51/4
f 28/52/3 21/7/3 20/10/3 27/50/3
f 25/53/2 18/4/2 19/6/2 26/43/2
f 31/54/1 24/1/1 18/4/1 25/53/1
f 39/55/1 31/54/1 25/53/1 33/56/1
f 33/56/2 25/53/2 26/43/2 34/57/2
f 36/58/3 28/52/3 27/50/3 35/59/3
f 35/59/4 27/50/4 32/51/4 40/60/4
f 55/61/3 54/62/3 28/52/3 36/58/3
f 40/63/1 32/45/1 29/46/1 37/64/1
f 34/57/3 26/43/3 30/44/3 38/47/3
f 49/65/1 48/40/1 31/54/1 39/55/1
f 15/66/8 41/67/8 89/68/8 81/69/8
f 7/21/3 34/57/3 38/47/3 14/22/3
f 1/32/1 40/63/1 37/64/1 9/33/1
f 46/70/9 47/71/9 74/72/9 73/73/9
f 5/14/4 35/59/4 40/60/4 1/74/4
f 11/13/3 36/58/3 35/59/3 5/14/3
f 3/75/2 33/56/2 34/57/2 7/21/2
f 15/76/1 39/55/1 33/56/1 3/75/1
f 54/62/7 53/25/7 66/77/7 71/78/7
f 51/79/1 60/80/1 49/65/1 41/81/1
f 60/80/1 59/82/1 48/40/1 49/65/1
f 38/47/3 30/44/3 47/71/3 50/83/3
f 47/71/10 30/44/10 70/84/10 74/72/10
f 59/82/1 58/85/1 45/38/1 48/40/1
f 58/85/1 56/86/1 43/39/1 45/38/1
f 23/31/3 16/30/3 42/87/3 46/70/3
f 57/88/3 11/13/3 100/16/3 104/89/3
f 16/30/5 13/37/5 43/90/5 42/87/5
f 22/29/1 10/28/1 56/86/1 58/85/1
f 49/65/11 39/55/11 80/91/11 88/92/11
f 37/64/1 29/46/1 59/82/1 60/80/1
f 37/64/11 60/80/11 92/93/11 79/94/11
f 44/95/3 50/83/3 55/61/3 57/88/3
f 50/83/3 47/71/3 54/62/3 55/61/3
f 47/71/3 46/70/3 53/25/3 54/62/3
f 46/70/3 42/87/3 52/19/3 53/25/3
f 5/14/4 1/74/4 94/96/4 98/15/4
f 42/87/5 43/90/5 56/20/5 52/19/5
f 71/78/3 66/77/3 67/97/3 68/98/3
f 76/99/3 72/100/3 61/101/3 62/102/3
f 64/49/3 65/48/3 75/103/3 63/104/3
f 70/84/3 69/105/3 73/73/3 74/72/3
f 53/25/12 21/7/12 67/97/12 66/77/12
f 21/7/9 28/52/9 68/98/9 67/97/9
f 36/58/9 11/13/9 62/102/9 61/101/9
f 38/47/12 50/83/12 75/103/12 65/48/12
f 28/52/10 54/62/10 71/78/10 68/98/10
f 55/61/12 36/58/12 61/101/12 72/100/12
f 30/44/7 23/31/7 69/105/7 70/84/7
f 50/83/9 44/95/9 63/104/9 75/103/9
f 11/13/10 57/88/10 76/99/10 62/102/10
f 44/95/10 14/22/10 64/49/10 63/104/10
f 57/88/7 55/61/7 72/100/7 76/99/7
f 23/31/12 46/70/12 73/73/12 69/105/12
f 87/42/1 82/41/1 83/106/1 86/107/1
f 89/108/1 88/92/1 80/91/1 81/109/1
f 85/110/1 84/111/1 90/112/1 91/113/1
f 78/114/1 79/94/1 92/93/1 77/115/1
f 58/85/13 59/82/13 91/113/13 90/112/13
f 29/46/6 22/29/6 84/111/6 85/110/6
f 9/33/6 37/64/6 79/94/6 78/114/6
f 51/116/8 9/117/8 78/118/8 77/119/8
f 39/55/13 15/76/13 81/109/13 80/91/13
f 60/80/13 51/79/13 77/115/13 92/93/13
f 41/81/6 49/65/6 88/92/6 89/108/6
f 24/1/13 31/54/13 86/107/13 83/106/13
f 45/38/11 24/1/11 83/106/11 82/41/11
f 22/29/11 58/85/11 90/112/11 84/111/11
f 31/54/8 48/40/8 87/42/8 86/107/8
f 59/82/8 29/46/8 85/110/8 91/113/8
f 93/120/14 100/16/14 98/15/14 94/121/14
f 99/122/14 104/89/14 100/16/14 93/120/14
f 96/123/14 95/24/14 97/23/14 102/124/14
f 102/124/14 97/23/14 101/125/14 103/126/14
f 103/126/14 101/125/14 104/89/14 99/122/14
f 3/75/2 7/21/2 95/24/2 96/127/2
f 14/22/3 44/95/3 101/125/3 97/23/3
f 51/79/1 41/81/1 103/128/1 99/129/1
f 44/95/3 57/88/3 104/89/3 101/125/3
f 41/67/1 15/66/1 102/124/1 103/126/1
f 15/76/1 3/75/1 96/127/1 102/130/1
f 9/117/1 51/116/1 99/122/1 93/120/1
