# Blender v2.92.0 OBJ File: 'TapaVentilacion.blend'
# www.blender.org
mtllib TapaVentilacion.mtl
o Cubo
v -0.005000 0.000000 0.400000
v -0.005000 0.800000 0.400000
v -0.005000 0.000000 -0.400000
v -0.005000 0.800000 -0.400000
v 0.005000 0.000000 0.400000
v 0.005000 0.800000 0.400000
v 0.005000 0.000000 -0.400000
v 0.005000 0.800000 -0.400000
v -0.005000 0.160000 0.400000
v -0.005000 0.320000 0.400000
v -0.005000 0.480000 0.400000
v -0.005000 0.640000 0.400000
v -0.005000 0.640000 -0.400000
v -0.005000 0.480000 -0.400000
v -0.005000 0.320000 -0.400000
v -0.005000 0.160000 -0.400000
v 0.005000 0.640000 -0.400000
v 0.005000 0.480000 -0.400000
v 0.005000 0.320000 -0.400000
v 0.005000 0.160000 -0.400000
v 0.005000 0.640000 0.400000
v 0.005000 0.480000 0.400000
v 0.005000 0.320000 0.400000
v 0.005000 0.160000 0.400000
v -0.000000 0.800000 -0.400000
v -0.000000 0.800000 0.400000
v 0.000000 0.640000 -0.400000
v 0.000000 0.640000 0.400000
v -0.000000 0.480000 -0.400000
v 0.000000 0.320000 -0.400000
v -0.000000 0.480000 0.400000
v 0.000000 0.320000 0.400000
v -0.000000 0.640000 -0.400000
v 0.000000 0.480000 -0.400000
v -0.000000 0.320000 -0.400000
v 0.000000 0.160000 -0.400000
v -0.000000 0.640000 0.400000
v 0.000000 0.480000 0.400000
v -0.000000 0.320000 0.400000
v 0.000000 0.160000 0.400000
v -0.005000 0.000000 0.268521
v -0.005000 0.800000 0.268521
v 0.005000 0.000000 0.268521
v 0.005000 0.800000 0.268521
v 0.005000 0.160000 0.268521
v 0.005000 0.320000 0.268521
v 0.005000 0.480000 0.268521
v 0.005000 0.640000 0.268521
v -0.005000 0.160000 0.268521
v -0.005000 0.320000 0.268521
v -0.005000 0.480000 0.268521
v -0.005000 0.640000 0.268521
v -0.000000 0.800000 0.268521
v 0.015000 0.640000 0.268521
v 0.015000 0.320000 0.268521
v -0.000000 0.480000 0.268521
v 0.015000 0.160000 0.268521
v -0.000000 0.320000 0.268521
v 0.015000 0.480000 0.268521
v -0.000000 0.640000 0.268521
v -0.005000 0.800000 -0.268521
v 0.005000 0.000000 -0.268521
v -0.005000 0.160000 -0.268521
v -0.005000 0.320000 -0.268521
v -0.005000 0.480000 -0.268521
v -0.005000 0.640000 -0.268521
v -0.005000 0.000000 -0.268521
v 0.005000 0.800000 -0.268521
v 0.005000 0.160000 -0.268521
v 0.005000 0.320000 -0.268521
v 0.005000 0.480000 -0.268521
v 0.005000 0.640000 -0.268521
v -0.000000 0.800000 -0.268521
v 0.015000 0.640000 -0.268521
v 0.015000 0.320000 -0.268521
v -0.000000 0.480000 -0.268521
v 0.015000 0.160000 -0.268521
v -0.000000 0.320000 -0.268521
v 0.015000 0.480000 -0.268521
v -0.000000 0.640000 -0.268521
v 0.007433 0.720000 -0.340000
v 0.017433 0.720000 -0.340000
v 0.007433 0.702680 -0.330000
v 0.017433 0.702680 -0.330000
v 0.007433 0.702680 -0.310000
v 0.017433 0.702680 -0.310000
v 0.007433 0.720000 -0.300000
v 0.017433 0.720000 -0.300000
v 0.007433 0.737321 -0.310000
v 0.017433 0.737321 -0.310000
v 0.007433 0.737321 -0.330000
v 0.017433 0.737321 -0.330000
v 0.007433 0.720000 0.300000
v 0.007433 0.702680 0.310000
v 0.017433 0.702680 0.310000
v 0.017433 0.720000 0.300000
v 0.007433 0.702680 0.330000
v 0.017433 0.702680 0.330000
v 0.007433 0.720000 0.340000
v 0.017433 0.720000 0.340000
v 0.007433 0.737321 0.330000
v 0.017433 0.737321 0.330000
v 0.007433 0.737321 0.310000
v 0.017433 0.737321 0.310000
v 0.007433 0.080000 0.300000
v 0.007433 0.062679 0.310000
v 0.017433 0.062679 0.310000
v 0.017433 0.080000 0.300000
v 0.007433 0.062679 0.330000
v 0.017433 0.062679 0.330000
v 0.007433 0.080000 0.340000
v 0.017433 0.080000 0.340000
v 0.007433 0.097320 0.330000
v 0.017433 0.097320 0.330000
v 0.007433 0.097320 0.310000
v 0.017433 0.097320 0.310000
v 0.007433 0.080000 -0.340000
v 0.007433 0.062679 -0.330000
v 0.017433 0.062679 -0.330000
v 0.017433 0.080000 -0.340000
v 0.007433 0.062679 -0.310000
v 0.017433 0.062679 -0.310000
v 0.007433 0.080000 -0.300000
v 0.017433 0.080000 -0.300000
v 0.007433 0.097320 -0.310000
v 0.017433 0.097320 -0.310000
v 0.007433 0.097320 -0.330000
v 0.017433 0.097320 -0.330000
vt 0.575000 0.166531
vt 0.625000 0.166531
vt 0.625000 0.250000
vt 0.575000 0.250000
vt 0.625000 0.500000
vt 0.575000 0.500000
vt 0.625000 0.750000
vt 0.575000 0.750000
vt 0.575000 0.750000
vt 0.625000 0.750000
vt 0.625000 1.000000
vt 0.575000 1.000000
vt 0.125000 0.708913
vt 0.375000 0.708913
vt 0.375000 0.750000
vt 0.125000 0.750000
vt 0.625000 0.708913
vt 0.875000 0.708913
vt 0.875000 0.750000
vt 0.425000 0.750000
vt 0.425000 1.000000
vt 0.375000 1.000000
vt 0.475000 0.750000
vt 0.475000 1.000000
vt 0.525000 0.750000
vt 0.525000 1.000000
vt 0.425000 0.708913
vt 0.475000 0.708913
vt 0.475000 0.750000
vt 0.475000 0.708913
vt 0.475000 0.750000
vt 0.525000 0.750000
vt 0.575000 0.708913
vt 0.575000 0.750000
vt 0.575000 0.708913
vt 0.375000 0.250000
vt 0.425000 0.250000
vt 0.425000 0.500000
vt 0.375000 0.500000
vt 0.475000 0.250000
vt 0.475000 0.500000
vt 0.525000 0.250000
vt 0.525000 0.500000
vt 0.375000 0.166531
vt 0.425000 0.166531
vt 0.475000 0.166531
vt 0.525000 0.166531
vt 0.575000 0.708913
vt 0.625000 0.708913
vt 0.575000 0.583469
vt 0.575000 0.500000
vt 0.575000 0.583469
vt 0.625000 0.500000
vt 0.475000 0.708913
vt 0.525000 0.708913
vt 0.525000 0.500000
vt 0.475000 0.500000
vt 0.475000 0.583469
vt 0.475000 0.583469
vt 0.525000 0.708913
vt 0.425000 0.708913
vt 0.425000 0.750000
vt 0.525000 0.708913
vt 0.525000 0.750000
vt 0.525000 0.583469
vt 0.525000 0.500000
vt 0.525000 0.583469
vt 0.475000 0.500000
vt 0.425000 0.500000
vt 0.425000 0.583469
vt 0.425000 0.583469
vt 0.575000 0.500000
vt 0.575000 0.583469
vt 0.475000 0.583469
vt 0.525000 0.583469
vt 0.625000 0.583469
vt 0.625000 0.583469
vt 0.525000 0.000000
vt 0.575000 0.000000
vt 0.575000 0.041087
vt 0.525000 0.041087
vt 0.475000 0.000000
vt 0.475000 0.041087
vt 0.425000 0.000000
vt 0.425000 0.041087
vt 0.375000 0.000000
vt 0.375000 0.041087
vt 0.375000 0.583469
vt 0.875000 0.583469
vt 0.125000 0.583469
vt 0.625000 0.000000
vt 0.625000 0.041087
vt 0.125000 0.500000
vt 0.875000 0.500000
vt 1.000000 0.500000
vt 0.833333 0.500000
vt 0.833333 1.000000
vt 1.000000 1.000000
vt 0.666667 0.500000
vt 0.666667 1.000000
vt 0.500000 0.500000
vt 0.500000 1.000000
vt 0.333333 0.500000
vt 0.333333 1.000000
vt 0.457846 0.370000
vt 0.457846 0.130000
vt 0.250000 0.010000
vt 0.042154 0.130000
vt 0.042154 0.370000
vt 0.250000 0.490000
vt 0.166667 0.500000
vt 0.166667 1.000000
vt -0.000000 0.500000
vt -0.000000 1.000000
vt 0.750000 0.490000
vt 0.542154 0.370000
vt 0.542154 0.130000
vt 0.750000 0.010000
vt 0.957846 0.130000
vt 0.957846 0.370000
vt 1.000000 0.500000
vt 0.833333 0.500000
vt 0.833333 1.000000
vt 1.000000 1.000000
vt 0.666667 0.500000
vt 0.666667 1.000000
vt 0.500000 0.500000
vt 0.500000 1.000000
vt 0.333333 0.500000
vt 0.333333 1.000000
vt 0.457846 0.370000
vt 0.457846 0.130000
vt 0.250000 0.010000
vt 0.042154 0.130000
vt 0.042154 0.370000
vt 0.250000 0.490000
vt 0.166667 0.500000
vt 0.166667 1.000000
vt -0.000000 0.500000
vt -0.000000 1.000000
vt 0.750000 0.490000
vt 0.542154 0.370000
vt 0.542154 0.130000
vt 0.750000 0.010000
vt 0.957846 0.130000
vt 0.957846 0.370000
vt 1.000000 0.500000
vt 0.833333 0.500000
vt 0.833333 1.000000
vt 1.000000 1.000000
vt 0.666667 0.500000
vt 0.666667 1.000000
vt 0.500000 0.500000
vt 0.500000 1.000000
vt 0.333333 0.500000
vt 0.333333 1.000000
vt 0.457846 0.370000
vt 0.457846 0.130000
vt 0.250000 0.010000
vt 0.042154 0.130000
vt 0.042154 0.370000
vt 0.250000 0.490000
vt 0.166667 0.500000
vt 0.166667 1.000000
vt -0.000000 0.500000
vt -0.000000 1.000000
vt 0.750000 0.490000
vt 0.542154 0.370000
vt 0.542154 0.130000
vt 0.750000 0.010000
vt 0.957846 0.130000
vt 0.957846 0.370000
vt 1.000000 0.500000
vt 1.000000 1.000000
vt 0.833333 1.000000
vt 0.833333 0.500000
vt 0.666667 1.000000
vt 0.666667 0.500000
vt 0.500000 1.000000
vt 0.500000 0.500000
vt 0.333333 1.000000
vt 0.333333 0.500000
vt 0.457846 0.370000
vt 0.250000 0.490000
vt 0.042154 0.370000
vt 0.042154 0.130000
vt 0.250000 0.010000
vt 0.457846 0.130000
vt 0.166667 1.000000
vt 0.166667 0.500000
vt -0.000000 1.000000
vt -0.000000 0.500000
vt 0.750000 0.490000
vt 0.957846 0.370000
vt 0.957846 0.130000
vt 0.750000 0.010000
vt 0.542154 0.130000
vt 0.542154 0.370000
vn -1.0000 0.0000 0.0000
vn 0.0000 0.0000 -1.0000
vn 0.0000 0.0000 1.0000
vn 0.0000 -1.0000 0.0000
vn 0.0000 1.0000 0.0000
vn 1.0000 0.0000 0.0000
vn 0.9973 0.0467 0.0569
vn 0.9956 0.0933 0.0000
vn 0.9973 0.0467 -0.0569
vn 0.0000 0.5000 0.8660
vn 0.0000 0.5000 -0.8660
vn 0.0000 -0.5000 -0.8660
vn 0.0000 -0.5000 0.8660
usemtl None
s off
f 66/1/1 61/2/1 4/3/1 13/4/1
f 13/4/2 4/3/2 8/5/2 17/6/2
f 6/7/2 21/8/2 28/9/2 26/10/2
f 21/8/3 6/7/3 2/11/3 12/12/3
f 41/13/4 43/14/4 5/15/4 1/16/4
f 44/17/5 42/18/5 2/19/5 6/7/5
f 5/15/3 24/20/3 9/21/3 1/22/3
f 24/20/3 23/23/3 10/24/3 9/21/3
f 23/23/3 22/25/3 11/26/3 10/24/3
f 22/25/3 21/8/3 12/12/3 11/26/3
f 43/14/6 45/27/6 24/20/6 5/15/6
f 46/28/4 23/23/4 39/29/4 58/30/4
f 22/25/2 23/23/2 32/31/2 31/32/2
f 48/33/4 21/8/4 37/34/4 60/35/4
f 3/36/2 16/37/2 20/38/2 7/39/2
f 16/37/2 15/40/2 19/41/2 20/38/2
f 15/40/2 14/42/2 18/43/2 19/41/2
f 14/42/2 13/4/2 17/6/2 18/43/2
f 67/44/1 63/45/1 16/37/1 3/36/1
f 63/45/1 64/46/1 15/40/1 16/37/1
f 64/46/1 65/47/1 14/42/1 15/40/1
f 65/47/1 66/1/1 13/4/1 14/42/1
f 54/48/7 53/49/7 26/10/7 28/9/7
f 72/50/4 17/6/4 27/51/4 74/52/4
f 17/6/3 8/5/3 25/53/3 27/51/3
f 44/17/4 6/7/4 26/10/4 53/49/4
f 55/54/7 56/55/7 31/32/7 32/31/7
f 19/41/3 18/43/3 29/56/3 30/57/3
f 70/58/4 19/41/4 30/57/4 75/59/4
f 47/60/4 22/25/4 31/32/4 56/55/4
f 57/61/7 58/30/7 39/29/7 40/62/7
f 59/63/7 60/35/7 37/34/7 38/64/7
f 23/23/2 24/20/2 40/62/2 39/29/2
f 21/8/2 22/25/2 38/64/2 37/34/2
f 71/65/4 18/43/4 34/66/4 79/67/4
f 20/38/3 19/41/3 35/68/3 36/69/3
f 69/70/4 20/38/4 36/69/4 77/71/4
f 18/43/3 17/6/3 33/72/3 34/66/3
f 24/20/4 45/27/4 57/61/4 40/62/4
f 22/25/4 47/60/4 59/63/4 38/64/4
f 79/67/8 80/73/8 60/35/8 59/63/8
f 77/71/8 78/74/8 58/30/8 57/61/8
f 71/65/4 47/60/4 56/55/4 76/75/4
f 23/23/4 46/28/4 55/54/4 32/31/4
f 75/59/8 76/75/8 56/55/8 55/54/8
f 68/76/4 44/17/4 53/49/4 73/77/4
f 21/8/4 48/33/4 54/48/4 28/9/4
f 74/52/8 73/77/8 53/49/8 54/48/8
f 11/78/1 12/79/1 52/80/1 51/81/1
f 10/82/1 11/78/1 51/81/1 50/83/1
f 9/84/1 10/82/1 50/83/1 49/85/1
f 1/86/1 9/84/1 49/85/1 41/87/1
f 72/50/4 48/33/4 60/35/4 80/73/4
f 70/58/4 46/28/4 58/30/4 78/74/4
f 62/88/6 69/70/6 45/27/6 43/14/6
f 68/76/5 61/89/5 42/18/5 44/17/5
f 67/90/4 62/88/4 43/14/4 41/13/4
f 12/79/1 2/91/1 42/92/1 52/80/1
f 3/93/4 7/39/4 62/88/4 67/90/4
f 8/5/5 4/94/5 61/89/5 68/76/5
f 7/39/6 20/38/6 69/70/6 62/88/6
f 19/41/4 70/58/4 78/74/4 35/68/4
f 17/6/4 72/50/4 80/73/4 33/72/4
f 27/51/9 25/53/9 73/77/9 74/52/9
f 8/5/4 68/76/4 73/77/4 25/53/4
f 30/57/9 29/56/9 76/75/9 75/59/9
f 18/43/4 71/65/4 76/75/4 29/56/4
f 36/69/9 35/68/9 78/74/9 77/71/9
f 34/66/9 33/72/9 80/73/9 79/67/9
f 45/27/4 69/70/4 77/71/4 57/61/4
f 47/60/4 71/65/4 79/67/4 59/63/4
f 46/28/4 70/58/4 75/59/4 55/54/4
f 48/33/4 72/50/4 74/52/4 54/48/4
f 51/81/1 52/80/1 66/1/1 65/47/1
f 50/83/1 51/81/1 65/47/1 64/46/1
f 49/85/1 50/83/1 64/46/1 63/45/1
f 41/87/1 49/85/1 63/45/1 67/44/1
f 52/80/1 42/92/1 61/2/1 66/1/1
f 81/95/10 83/96/10 84/97/10 82/98/10
f 83/96/5 85/99/5 86/100/5 84/97/5
f 85/99/11 87/101/11 88/102/11 86/100/11
f 87/101/12 89/103/12 90/104/12 88/102/12
f 84/105/1 86/106/1 88/107/1 90/108/1 92/109/1 82/110/1
f 89/103/4 91/111/4 92/112/4 90/104/4
f 91/111/13 81/113/13 82/114/13 92/112/13
f 81/115/6 91/116/6 89/117/6 87/118/6 85/119/6 83/120/6
f 93/121/10 94/122/10 95/123/10 96/124/10
f 94/122/5 97/125/5 98/126/5 95/123/5
f 97/125/11 99/127/11 100/128/11 98/126/11
f 99/127/12 101/129/12 102/130/12 100/128/12
f 95/131/1 98/132/1 100/133/1 102/134/1 104/135/1 96/136/1
f 101/129/4 103/137/4 104/138/4 102/130/4
f 103/137/13 93/139/13 96/140/13 104/138/13
f 93/141/6 103/142/6 101/143/6 99/144/6 97/145/6 94/146/6
f 105/147/10 106/148/10 107/149/10 108/150/10
f 106/148/5 109/151/5 110/152/5 107/149/5
f 109/151/11 111/153/11 112/154/11 110/152/11
f 111/153/12 113/155/12 114/156/12 112/154/12
f 107/157/1 110/158/1 112/159/1 114/160/1 116/161/1 108/162/1
f 113/155/4 115/163/4 116/164/4 114/156/4
f 115/163/13 105/165/13 108/166/13 116/164/13
f 105/167/6 115/168/6 113/169/6 111/170/6 109/171/6 106/172/6
f 117/173/12 120/174/12 119/175/12 118/176/12
f 118/176/4 119/175/4 122/177/4 121/178/4
f 121/178/13 122/177/13 124/179/13 123/180/13
f 123/180/10 124/179/10 126/181/10 125/182/10
f 119/183/6 120/184/6 128/185/6 126/186/6 124/187/6 122/188/6
f 125/182/5 126/181/5 128/189/5 127/190/5
f 127/190/11 128/189/11 120/191/11 117/192/11
f 117/193/1 118/194/1 121/195/1 123/196/1 125/197/1 127/198/1
