# Blender v2.93.1 OBJ File: 'CajaFuerte.blend'
# www.blender.org
mtllib CajaFuertePuerta.mtl
o Cubo.001_Cubo.004
v 0.509418 0.900000 -0.504000
v 0.509418 0.100000 -0.504000
v 0.509418 0.100000 0.498000
v 0.509418 0.900000 0.498000
v 0.609418 0.900000 -0.504000
v 0.609418 0.100000 -0.504000
v 0.609418 0.100000 0.498000
v 0.609418 0.900000 0.498000
vt 0.399458 0.524458
vt 0.399458 0.725542
vt 0.600542 0.725542
vt 0.600542 0.524458
vt 0.399458 0.524458
vt 0.600542 0.524458
vt 0.600542 0.725542
vt 0.399458 0.725542
vn -1.0000 0.0000 0.0000
vn 1.0000 0.0000 0.0000
vn 0.0000 0.0000 -1.0000
vn 0.0000 0.0000 1.0000
vn 0.0000 -1.0000 0.0000
vn 0.0000 1.0000 0.0000
usemtl None
s off
f 2/1/1 3/2/1 4/3/1 1/4/1
f 6/5/2 5/6/2 8/7/2 7/8/2
f 2/1/3 1/4/3 5/6/3 6/5/3
f 4/3/4 3/2/4 7/8/4 8/7/4
f 3/2/5 2/1/5 6/5/5 7/8/5
f 1/4/6 4/3/6 8/7/6 5/6/6
o Cilindro.001
v 0.609280 0.594893 0.305382
v 0.670940 0.594893 0.305382
v 0.609280 0.574939 0.301412
v 0.670940 0.574939 0.301412
v 0.609280 0.558022 0.290109
v 0.670940 0.558022 0.290109
v 0.609280 0.546718 0.273192
v 0.670940 0.546718 0.273192
v 0.609280 0.542749 0.253237
v 0.670940 0.542749 0.253237
v 0.609280 0.546718 0.233283
v 0.670940 0.546718 0.233283
v 0.609280 0.558022 0.216366
v 0.670940 0.558022 0.216366
v 0.609280 0.574939 0.205062
v 0.670940 0.574939 0.205062
v 0.609280 0.594893 0.201093
v 0.670940 0.594893 0.201093
v 0.609280 0.614848 0.205062
v 0.670940 0.614848 0.205062
v 0.609280 0.631765 0.216366
v 0.670940 0.631765 0.216366
v 0.609280 0.643068 0.233283
v 0.670940 0.643068 0.233283
v 0.609280 0.647038 0.253237
v 0.670940 0.647038 0.253237
v 0.609280 0.643068 0.273192
v 0.670940 0.643068 0.273192
v 0.609280 0.631765 0.290109
v 0.670940 0.631765 0.290109
v 0.609280 0.614848 0.301412
v 0.670940 0.614848 0.301412
v 0.685913 0.574939 0.301412
v 0.685913 0.594893 0.305382
v 0.685913 0.558022 0.290109
v 0.685913 0.546718 0.273192
v 0.685913 0.542749 0.253237
v 0.685913 0.546718 0.233283
v 0.685913 0.558022 0.216366
v 0.685913 0.574939 0.205062
v 0.685913 0.594893 0.201093
v 0.685913 0.614848 0.205062
v 0.685913 0.631765 0.216366
v 0.685913 0.643068 0.233283
v 0.685913 0.647038 0.253237
v 0.685913 0.643068 0.273192
v 0.685913 0.631765 0.290109
v 0.685913 0.614848 0.301412
v 0.724843 0.574939 0.301412
v 0.724843 0.594893 0.305382
v 0.724843 0.558022 0.290109
v 0.724843 0.546718 0.273192
v 0.724843 0.542749 0.253237
v 0.724843 0.546718 0.233283
v 0.724843 0.558022 0.216366
v 0.724843 0.574939 0.205062
v 0.724843 0.594893 0.201093
v 0.724843 0.614848 0.205062
v 0.724843 0.631765 0.216366
v 0.724843 0.643068 0.233283
v 0.724843 0.647038 0.253237
v 0.724843 0.643068 0.273192
v 0.724843 0.631765 0.290109
v 0.724843 0.614848 0.301412
v 0.670939 0.324213 0.273192
v 0.670939 0.335516 0.290109
v 0.670939 0.320243 0.253237
v 0.670939 0.324213 0.233283
v 0.670939 0.335516 0.216366
v 0.685913 0.324213 0.273192
v 0.685913 0.335516 0.290109
v 0.685913 0.320243 0.253237
v 0.685913 0.324213 0.233283
v 0.685913 0.335516 0.216366
vt 1.000000 0.500000
vt 0.937500 0.500000
vt 0.937500 1.000000
vt 1.000000 1.000000
vt 0.875000 0.500000
vt 0.875000 1.000000
vt 0.812500 0.500000
vt 0.812500 1.000000
vt 0.750000 0.500000
vt 0.750000 1.000000
vt 0.687500 0.500000
vt 0.687500 1.000000
vt 0.625000 0.500000
vt 0.625000 1.000000
vt 0.562500 0.500000
vt 0.562500 1.000000
vt 0.500000 0.500000
vt 0.500000 1.000000
vt 0.437500 0.500000
vt 0.437500 1.000000
vt 0.375000 0.500000
vt 0.375000 1.000000
vt 0.312500 0.500000
vt 0.312500 1.000000
vt 0.250000 0.500000
vt 0.250000 1.000000
vt 0.187500 0.500000
vt 0.187500 1.000000
vt 0.125000 0.500000
vt 0.125000 1.000000
vt 0.687500 1.000000
vt 0.750000 1.000000
vt 0.062500 0.500000
vt 0.062500 1.000000
vt 0.000000 0.500000
vt 0.000000 1.000000
vt 0.812500 1.000000
vt 0.812500 1.000000
vt 0.875000 1.000000
vt 0.875000 1.000000
vt 0.375000 1.000000
vt 0.437500 1.000000
vt 0.062500 1.000000
vt 0.125000 1.000000
vt 0.625000 1.000000
vt 0.500000 1.000000
vt 0.562500 1.000000
vt 0.937500 1.000000
vt 1.000000 1.000000
vt 0.187500 1.000000
vt 0.250000 1.000000
vt 0.812500 1.000000
vt 0.750000 1.000000
vt 0.750000 1.000000
vt 0.312500 1.000000
vt 0.000000 1.000000
vt 0.625000 1.000000
vt 0.625000 1.000000
vt 0.341844 0.471731
vt 0.419706 0.419706
vt 0.471731 0.341844
vt 0.490000 0.250000
vt 0.471731 0.158156
vt 0.419706 0.080294
vt 0.341844 0.028269
vt 0.250000 0.010000
vt 0.158156 0.028269
vt 0.080294 0.080294
vt 0.028269 0.158156
vt 0.010000 0.250000
vt 0.028269 0.341844
vt 0.080294 0.419706
vt 0.158156 0.471731
vt 0.250000 0.490000
vt 0.312500 1.000000
vt 0.375000 1.000000
vt 0.750000 1.000000
vt 0.250000 1.000000
vt 0.687500 1.000000
vt 0.687500 1.000000
vt 0.187500 1.000000
vt 0.625000 1.000000
vt 0.125000 1.000000
vt 0.562500 1.000000
vt 0.062500 1.000000
vt 0.500000 1.000000
vt 0.937500 1.000000
vt 1.000000 1.000000
vt 0.000000 1.000000
vt 0.437500 1.000000
vt 0.687500 1.000000
vt 0.812500 1.000000
vt 0.875000 1.000000
vt 0.875000 1.000000
vn 0.0000 0.0000 1.0000
vn 0.0000 -0.3827 0.9239
vn 0.0000 -0.7071 0.7071
vn -0.1640 -0.5097 0.8445
vn 0.0000 -0.9239 0.3827
vn -0.7537 -0.6071 0.2515
vn 0.0000 -1.0000 0.0000
vn -0.7537 -0.6571 0.0000
vn 0.0000 -0.9239 -0.3827
vn -0.7537 -0.6071 -0.2515
vn 0.0000 -0.7071 -0.7071
vn -0.1640 -0.5097 -0.8445
vn 0.0000 -0.3827 -0.9239
vn 0.0000 0.0000 -1.0000
vn 0.0000 0.3827 -0.9239
vn 0.0000 0.7071 -0.7071
vn 0.0000 0.9239 -0.3827
vn 0.0000 1.0000 0.0000
vn 0.0000 0.9239 0.3827
vn 0.0000 0.7071 0.7071
vn -0.6657 -0.6894 -0.2855
vn -0.6657 -0.7462 0.0000
vn 0.0000 0.3827 0.9239
vn 0.7537 -0.6071 0.2515
vn 0.6657 -0.6894 0.2855
vn 0.6657 -0.5276 0.5276
vn 0.1640 -0.5097 0.8445
vn -0.6148 -0.3718 -0.6955
vn 0.6657 -0.7462 0.0000
vn 0.7537 -0.6571 0.0000
vn 0.1640 -0.5097 -0.8445
vn 0.6148 -0.3718 -0.6955
vn 0.6657 -0.2855 0.6894
vn 0.6657 -0.6894 -0.2855
vn 0.6657 -0.5276 -0.5276
vn 0.6657 -0.2855 -0.6894
vn 0.6657 0.0000 -0.7462
vn 0.6657 0.2855 -0.6894
vn 0.6657 0.5276 -0.5276
vn 0.6657 0.6894 -0.2855
vn 0.6657 0.7462 0.0000
vn 0.6657 0.6894 0.2855
vn 0.6657 0.5276 0.5276
vn 0.6657 0.2855 0.6894
vn 0.6657 0.0000 0.7462
vn 0.7537 -0.6071 -0.2515
vn -0.6657 -0.6894 0.2855
vn 0.6148 -0.3718 0.6955
vn -0.6148 -0.3718 0.6955
usemtl None
s 1
f 9/9/7 11/10/8 12/11/8 10/12/7
f 11/10/8 13/13/9 14/14/10 12/11/8
f 13/13/9 15/15/11 16/16/12 14/14/10
f 15/15/11 17/17/13 18/18/14 16/16/12
f 17/17/13 19/19/15 20/20/16 18/18/14
f 19/19/15 21/21/17 22/22/18 20/20/16
f 21/21/17 23/23/19 24/24/19 22/22/18
f 23/23/19 25/25/20 26/26/20 24/24/19
f 25/25/20 27/27/21 28/28/21 26/26/20
f 27/27/21 29/29/22 30/30/22 28/28/21
f 29/29/22 31/31/23 32/32/23 30/30/22
f 31/31/23 33/33/24 34/34/24 32/32/23
f 33/33/24 35/35/25 36/36/25 34/34/24
f 35/35/25 37/37/26 38/38/26 36/36/25
f 20/20/16 76/39/27 75/40/28 18/18/14
f 37/37/26 39/41/29 40/42/29 38/38/26
f 39/41/29 9/43/7 10/44/7 40/42/29
f 44/45/30 60/46/31 59/47/32 43/48/33
f 30/30/22 51/49/22 50/50/21 28/28/21
f 40/42/29 56/51/29 55/52/26 38/38/26
f 22/22/18 77/53/34 76/39/27 20/20/16
f 26/26/20 49/54/20 48/55/19 24/24/19
f 12/11/8 41/56/8 42/57/7 10/12/7
f 36/36/25 54/58/25 53/59/24 34/34/24
f 44/45/30 78/60/31 80/61/35 45/62/36
f 32/32/23 52/63/23 51/49/22 30/30/22
f 10/44/7 42/64/7 56/51/29 40/42/29
f 47/65/37 82/66/38 77/53/34 22/22/18
f 28/28/21 50/50/21 49/54/20 26/26/20
f 38/38/26 55/52/26 54/58/25 36/36/25
f 14/14/10 43/48/33 41/56/8 12/11/8
f 24/24/19 48/55/19 47/65/37 22/22/18
f 34/34/24 53/59/24 52/63/23 32/32/23
f 57/67/39 59/68/32 60/69/31 61/70/35 62/71/40 63/72/41 64/73/42 65/74/43 66/75/44 67/76/45 68/77/46 69/78/47 70/79/48 71/80/49 72/81/50 58/82/51
f 52/63/23 68/83/46 67/84/45 51/49/22
f 45/62/36 61/85/35 60/46/31 44/45/30
f 53/59/24 69/86/47 68/83/46 52/63/23
f 46/87/52 62/88/40 61/85/35 45/62/36
f 54/58/25 70/89/48 69/86/47 53/59/24
f 47/65/37 63/90/41 62/88/40 46/87/52
f 55/52/26 71/91/49 70/89/48 54/58/25
f 48/55/19 64/92/42 63/90/41 47/65/37
f 56/51/29 72/93/50 71/91/49 55/52/26
f 49/54/20 65/94/43 64/92/42 48/55/19
f 41/56/8 57/95/39 58/96/51 42/57/7
f 42/64/7 58/97/51 72/93/50 56/51/29
f 50/50/21 66/98/44 65/94/43 49/54/20
f 43/48/33 59/47/32 57/95/39 41/56/8
f 51/49/22 67/84/45 66/98/44 50/50/21
f 76/39/27 81/99/40 80/61/35 75/40/28
f 73/100/53 78/60/31 79/101/54 74/102/55
f 77/53/34 82/66/38 81/99/40 76/39/27
f 75/40/28 80/61/35 78/60/31 73/100/53
f 18/18/14 75/40/28 73/100/53 16/16/12
f 45/62/36 80/61/35 81/99/40 46/87/52
f 16/16/12 73/100/53 74/102/55 14/14/10
f 46/87/52 81/99/40 82/66/38 47/65/37
f 14/14/10 74/102/55 79/101/54 43/48/33
f 43/48/33 79/101/54 78/60/31 44/45/30
