# Blender v2.93.1 OBJ File: 'CajaFuerte.blend'
# www.blender.org
mtllib CajaFuerte.mtl
o Cubo_Cubo.003
v -0.600000 0.000000 0.600000
v -0.600000 1.000000 0.600000
v -0.600000 0.000000 -0.600000
v -0.600000 1.000000 -0.600000
v 0.600000 0.100000 0.498000
v 0.600000 0.900000 0.498000
v 0.600000 0.100000 -0.504000
v 0.600000 0.900000 -0.504000
v 0.600000 1.000000 -0.600000
v 0.600000 0.000000 -0.600000
v 0.600000 0.000000 0.600000
v 0.600000 1.000000 0.600000
v -0.497693 0.900000 -0.504000
v -0.497693 0.100000 -0.504000
v -0.497693 0.100000 0.498000
v -0.497693 0.900000 0.498000
vt 0.375000 0.250000
vt 0.625000 0.250000
vt 0.625000 0.500000
vt 0.375000 0.500000
vt 0.399458 0.524458
vt 0.600542 0.524458
vt 0.600542 0.524458
vt 0.399458 0.524458
vt 0.375000 0.750000
vt 0.625000 0.750000
vt 0.625000 1.000000
vt 0.375000 1.000000
vt 0.875000 0.500000
vt 0.875000 0.750000
vt 0.399458 0.725542
vt 0.600542 0.725542
vt 0.600542 0.725542
vt 0.399458 0.725542
vn 0.0000 0.0000 -1.0000
vn 0.0000 0.0000 1.0000
vn 0.0000 1.0000 0.0000
vn 1.0000 0.0000 0.0000
vn 0.0000 -1.0000 0.0000
usemtl None
s off
f 3/1/1 4/2/1 9/3/1 10/4/1
f 7/5/2 8/6/2 13/7/2 14/8/2
f 11/9/2 12/10/2 2/11/2 1/12/2
f 9/3/3 4/13/3 2/14/3 12/10/3
f 8/6/4 7/5/4 10/4/4 9/3/4
f 7/5/4 5/15/4 11/9/4 10/4/4
f 6/16/4 8/6/4 9/3/4 12/10/4
f 5/15/4 6/16/4 12/10/4 11/9/4
f 14/8/4 13/7/4 16/17/4 15/18/4
f 6/16/1 5/15/1 15/18/1 16/17/1
f 5/15/3 7/5/3 14/8/3 15/18/3
f 8/6/5 6/16/5 16/17/5 13/7/5
